<svg width="107" height="42" viewBox="0 0 107 42" fill="none" xmlns="http://www.w3.org/2000/svg">
<path d="M4.7528 14.8802C4.75437 14.5133 4.75752 14.1479 4.7591 13.7825L4.77799 13.7605L4.76067 13.7384C4.80004 10.6155 7.16073 8.14459 9.67418 7.56347C9.98285 7.4926 10.2978 7.45323 10.6096 7.39969C11.0758 7.40126 11.5435 7.40126 12.0112 7.40284C14.668 7.69261 17.0382 9.64227 17.6445 12.5148C17.6949 12.751 17.7153 12.9935 17.7484 13.2313C17.7563 14.4298 17.7642 15.6282 17.772 16.8283C17.7216 17.0566 17.5516 17.1999 17.3972 17.3511C15.6176 19.1087 13.8365 20.8662 12.0538 22.619C11.9026 22.7686 11.7577 22.9198 11.5341 22.9969C11.1955 23.1151 10.9215 23.0725 10.6679 22.8237C10.0868 22.2536 9.50253 21.6867 8.91511 21.1229C8.44108 20.6677 7.93398 20.2567 7.27885 20.0851C6.7182 19.9386 6.14653 19.9228 5.57959 20.0142C5.06147 20.0977 4.94493 20.0457 4.77012 19.5276C4.79374 18.7937 4.81106 18.0614 4.75122 17.3275C4.75122 17.1889 4.7528 17.0488 4.7528 16.9102C4.81107 16.2346 4.80319 15.5574 4.7528 14.8802Z" fill="#6366F1"/>
<path d="M11.9278 33.1326C15.3704 32.7232 17.7405 30.9184 18.9831 27.6742C19.2461 26.9892 19.3358 26.2584 19.3941 25.5277C19.424 25.1482 19.4744 24.7812 19.7154 24.46C20.1595 23.8647 20.8981 23.6285 21.5737 23.8852C22.2146 24.1277 22.6225 24.7938 22.5375 25.5293C22.3391 27.2301 21.9579 28.8806 21.0886 30.3814C19.3657 33.3547 16.8507 35.2555 13.4774 35.9863C12.7876 36.1359 12.764 36.1532 12.7672 36.8713C12.7687 37.3516 12.7656 37.832 12.7703 38.3123C12.775 38.8068 12.9231 38.9517 13.4286 38.9533C14.331 38.9564 15.2334 38.9533 16.1357 38.958C16.9153 38.9627 17.5909 39.4777 17.6539 40.1092C17.7531 41.0872 17.3484 41.714 16.4696 41.9455L16.457 41.947C15.8806 41.9502 15.3042 41.9549 14.7278 41.9581C14.2853 41.9203 13.8412 41.9155 13.3987 41.9628C12.2412 41.9628 11.0836 41.9628 9.92613 41.9628C9.48203 41.9171 9.03792 41.9187 8.59382 41.9612C8.25208 41.9628 7.91033 41.9628 7.56859 41.9644C7.5308 41.9644 7.493 41.9644 7.45363 41.9644C7.07567 41.9628 6.69613 41.9691 6.31816 41.9565C5.47562 41.9297 4.86616 41.2762 4.87089 40.4163C4.87561 39.5879 5.49137 38.9706 6.34021 38.9611C7.2867 38.9501 8.2316 38.958 9.17808 38.9517C9.62849 38.9485 9.78282 38.7973 9.78755 38.3564C9.79385 37.7737 9.7718 37.191 9.79857 36.6099C9.81589 36.2256 9.61274 36.0823 9.29462 36.0319C8.27412 35.8729 7.31662 35.5217 6.40321 35.0602C3.7496 33.7201 1.87238 31.6649 0.76999 28.8979C0.319585 27.7687 0.0754849 26.5986 0.00304205 25.3939C-0.0489278 24.5119 0.62983 23.7907 1.4771 23.7796C2.57476 23.7655 3.11966 24.5529 3.13698 25.312C3.1921 27.7561 4.2315 29.7168 6.07564 31.2649C7.38276 32.3625 8.89619 33.0066 10.6159 33.12C11.0506 33.2208 11.4884 33.2098 11.9278 33.1326Z" fill="#6366F1"/>
<path d="M6.16854 21.1433C6.93706 21.0362 7.51975 21.3827 8.04102 21.8945C8.89301 22.7308 9.75288 23.5591 10.6064 24.3907C11.1671 24.9371 11.4285 24.9403 11.9955 24.3781C14.7971 21.6016 17.6019 18.8283 20.3941 16.0424C20.9894 15.4487 21.6555 15.0802 22.5138 15.0896C23.5296 15.1006 24.2635 15.5826 24.758 16.433C25.2556 17.2881 25.1879 18.159 24.7076 19.0047C24.4603 19.4393 24.0934 19.7795 23.7438 20.1275C20.3579 23.4914 16.9735 26.8584 13.5798 30.216C12.1561 31.6239 10.449 31.646 9.01585 30.2664C7.42368 28.7309 5.87246 27.1529 4.27715 25.6206C2.70388 24.1088 3.67871 21.6803 5.39214 21.2C5.65514 21.1244 5.91184 21.1528 6.16854 21.1433Z" fill="#15FE8D"/>
<path d="M17.7704 16.8283C17.7626 15.6298 17.7547 14.4298 17.7468 13.2313C17.8807 13.9809 17.8019 14.7353 17.8051 15.4881C17.8098 15.9353 17.8665 16.3842 17.7704 16.8283Z" fill="#6366F1"/>
<path d="M4.74966 17.3291C4.81108 18.0614 4.79218 18.7952 4.76856 19.5291C4.69454 18.7952 4.71344 18.0629 4.74966 17.3291Z" fill="#6366F1"/>
<path d="M4.75265 14.8802C4.80305 15.5573 4.81092 16.2345 4.75108 16.9117C4.7117 16.2345 4.70383 15.5573 4.75265 14.8802Z" fill="#6366F1"/>
<path d="M12.0096 7.4028C11.5419 7.40123 11.0758 7.40123 10.608 7.39966C11.0773 7.29729 11.5435 7.29257 12.0096 7.4028Z" fill="#6366F1"/>
<path d="M11.9278 33.1326C11.4884 33.2082 11.0506 33.2208 10.6128 33.1216C11.0522 33.1263 11.49 33.1295 11.9278 33.1326Z" fill="#6366F1"/>
<path d="M8.59375 41.9596C9.03786 41.9171 9.48196 41.9155 9.92607 41.9612C9.48039 42.0131 9.03628 42.0131 8.59375 41.9596Z" fill="#6366F1"/>
<path d="M13.3971 41.9628C13.8396 41.9155 14.2837 41.9203 14.7263 41.9581C14.2822 42.0148 13.8396 42.0116 13.3971 41.9628Z" fill="#6366F1"/>
<path d="M7.45361 41.9628C7.49141 41.9628 7.53078 41.9628 7.56857 41.9628C7.5292 42.0069 7.49141 42.0069 7.45361 41.9628Z" fill="#6366F1"/>
<path d="M4.76058 13.7384L4.77791 13.7605L4.75901 13.7825L4.74011 13.7589L4.76058 13.7384Z" fill="#6366F1"/>
<path d="M16.4554 41.947L16.468 41.9438L16.4617 41.9659L16.4554 41.947Z" fill="#6366F1"/>
<path d="M15.427 5.51515C15.5992 5.39351 15.8045 5.32882 16.0148 5.32952V5.33233C16.2133 5.33182 16.4076 5.38966 16.5734 5.49867C16.7393 5.60769 16.8695 5.76306 16.9478 5.94547L17.3789 7.25611C17.4783 7.55305 17.6456 7.82275 17.8673 8.04389C18.0891 8.26502 18.3592 8.43151 18.6564 8.53019L19.9066 8.9366C20.1083 9.007 20.2827 9.13933 20.4047 9.3147C20.5268 9.49007 20.5903 9.69951 20.5863 9.91314C20.5822 10.1268 20.5108 10.3336 20.3822 10.5043C20.2535 10.6749 20.0743 10.8005 19.8701 10.8632L18.6361 11.264C18.3376 11.3634 18.0665 11.5311 17.8441 11.7536C17.6217 11.9761 17.4543 12.2473 17.3549 12.5458L16.9485 13.7953C16.8777 13.9943 16.7465 14.1662 16.5734 14.2873C16.4003 14.4084 16.1938 14.4725 15.9825 14.4708C15.7713 14.4691 15.5658 14.4017 15.3947 14.2778C15.2236 14.154 15.0952 13.9799 15.0276 13.7798L14.6176 12.5198C14.5187 12.23 14.3552 11.9664 14.1397 11.7489C13.9241 11.5314 13.662 11.3656 13.3731 11.264L12.1236 10.8632C11.9231 10.7938 11.7493 10.6633 11.6268 10.4901C11.5042 10.3168 11.439 10.1096 11.4403 9.89737C11.4416 9.68516 11.5094 9.47871 11.6341 9.30701C11.7588 9.13532 11.9342 9.00701 12.1356 8.94011L13.3689 8.54003C13.6673 8.43986 13.9383 8.27174 14.1606 8.04893C14.3829 7.82613 14.5505 7.55472 14.65 7.25611L15.0564 6.00805C15.126 5.80906 15.2554 5.63679 15.427 5.51515ZM20.8179 1.96714C20.6837 2.06272 20.5829 2.19797 20.5296 2.35386L20.299 3.06121C20.2543 3.19585 20.1788 3.31823 20.0786 3.41867C19.9784 3.51911 19.8562 3.59485 19.7217 3.63989L19.0249 3.867C18.8655 3.921 18.7269 4.02339 18.6285 4.15989C18.53 4.29639 18.4766 4.46021 18.4757 4.6285C18.4755 4.79582 18.5277 4.95901 18.6249 5.0952C18.7221 5.23138 18.8595 5.33372 19.0179 5.38788L19.7252 5.6171C19.8568 5.66386 19.9759 5.74014 20.0734 5.84009C20.1709 5.94003 20.2442 6.06099 20.2877 6.19367L20.5155 6.89048C20.5691 7.04815 20.6704 7.18527 20.8053 7.2829C20.9402 7.38053 21.1021 7.43384 21.2686 7.43546C21.4351 7.43708 21.5981 7.38694 21.7348 7.29195C21.8716 7.19697 21.9755 7.06184 22.0322 6.90524L22.2635 6.19227C22.3088 6.05861 22.3844 5.93726 22.4845 5.83772C22.5845 5.73818 22.7062 5.66315 22.8401 5.61851L23.5376 5.3914C23.6984 5.34111 23.8393 5.24149 23.9403 5.10664C24.0413 4.9718 24.0972 4.80859 24.1003 4.64015C24.1033 4.4717 24.0532 4.30658 23.9572 4.16819C23.8611 4.02979 23.7239 3.92516 23.565 3.86911L22.852 3.63778C22.718 3.59253 22.5963 3.51678 22.4964 3.41648C22.3966 3.31618 22.3215 3.19409 22.2769 3.05981L22.0505 2.36441C21.9956 2.20269 21.8916 2.06206 21.7516 1.96362C21.6151 1.86659 21.4517 1.81474 21.2842 1.81537C21.1167 1.816 20.9536 1.86908 20.8179 1.96714Z" fill="#6366F1" stroke="#F5F5F5" stroke-width="0.803582"/>
<path d="M36.4846 28.24C35.6419 28.24 34.8819 28.0933 34.2046 27.8C33.5326 27.5067 32.9779 27.088 32.5406 26.544C32.1086 25.9947 31.8339 25.344 31.7166 24.592L33.7166 24.288C33.8873 24.9707 34.2366 25.4987 34.7646 25.872C35.2979 26.2453 35.9113 26.432 36.6046 26.432C37.0153 26.432 37.4019 26.368 37.7646 26.24C38.1273 26.112 38.4206 25.9253 38.6446 25.68C38.8739 25.4347 38.9886 25.1333 38.9886 24.776C38.9886 24.616 38.9619 24.4693 38.9086 24.336C38.8553 24.1973 38.7753 24.0747 38.6686 23.968C38.5673 23.8613 38.4339 23.7653 38.2686 23.68C38.1086 23.5893 37.9219 23.512 37.7086 23.448L34.7326 22.568C34.4766 22.4933 34.1993 22.3947 33.9006 22.272C33.6073 22.144 33.3273 21.9707 33.0606 21.752C32.7993 21.528 32.5833 21.2453 32.4126 20.904C32.2473 20.5573 32.1646 20.1307 32.1646 19.624C32.1646 18.8827 32.3513 18.2613 32.7246 17.76C33.1033 17.2533 33.6099 16.8747 34.2446 16.624C34.8846 16.3733 35.5939 16.2507 36.3726 16.256C37.1619 16.2613 37.8659 16.3973 38.4846 16.664C39.1033 16.9253 39.6206 17.3067 40.0366 17.808C40.4526 18.3093 40.7459 18.9147 40.9166 19.624L38.8446 19.984C38.7593 19.5787 38.5939 19.2347 38.3486 18.952C38.1086 18.664 37.8126 18.4453 37.4606 18.296C37.1139 18.1467 36.7433 18.0667 36.3486 18.056C35.9646 18.0507 35.6073 18.1093 35.2766 18.232C34.9513 18.3493 34.6873 18.52 34.4846 18.744C34.2873 18.968 34.1886 19.2293 34.1886 19.528C34.1886 19.8107 34.2739 20.0427 34.4446 20.224C34.6153 20.4 34.8259 20.5413 35.0766 20.648C35.3326 20.7493 35.5913 20.8347 35.8526 20.904L37.9166 21.48C38.1993 21.5547 38.5166 21.656 38.8686 21.784C39.2206 21.912 39.5593 22.0907 39.8846 22.32C40.2099 22.5493 40.4766 22.8507 40.6846 23.224C40.8979 23.5973 41.0046 24.072 41.0046 24.648C41.0046 25.2453 40.8793 25.7707 40.6286 26.224C40.3833 26.672 40.0499 27.0453 39.6286 27.344C39.2073 27.6427 38.7246 27.8667 38.1806 28.016C37.6419 28.1653 37.0766 28.24 36.4846 28.24ZM45.1522 28.24C44.5282 28.24 44.0002 28.1227 43.5682 27.888C43.1362 27.648 42.8082 27.3307 42.5842 26.936C42.3655 26.5413 42.2562 26.1067 42.2562 25.632C42.2562 25.216 42.3255 24.8427 42.4642 24.512C42.6029 24.176 42.8162 23.888 43.1042 23.648C43.3922 23.4027 43.7655 23.2027 44.2242 23.048C44.5709 22.936 44.9762 22.8347 45.4402 22.744C45.9095 22.6533 46.4162 22.5707 46.9602 22.496C47.5095 22.416 48.0829 22.3307 48.6802 22.24L47.9922 22.632C47.9975 22.0347 47.8642 21.5947 47.5922 21.312C47.3202 21.0293 46.8615 20.888 46.2162 20.888C45.8269 20.888 45.4509 20.9787 45.0882 21.16C44.7255 21.3413 44.4722 21.6533 44.3282 22.096L42.5682 21.544C42.7815 20.8133 43.1869 20.2267 43.7842 19.784C44.3869 19.3413 45.1975 19.12 46.2162 19.12C46.9842 19.12 47.6589 19.2453 48.2402 19.496C48.8269 19.7467 49.2615 20.1573 49.5442 20.728C49.6989 21.032 49.7922 21.344 49.8242 21.664C49.8562 21.9787 49.8722 22.3227 49.8722 22.696V28H48.1842V26.128L48.4642 26.432C48.0749 27.056 47.6189 27.5147 47.0962 27.808C46.5789 28.096 45.9309 28.24 45.1522 28.24ZM45.5362 26.704C45.9735 26.704 46.3469 26.6267 46.6562 26.472C46.9655 26.3173 47.2109 26.128 47.3922 25.904C47.5789 25.68 47.7042 25.4693 47.7682 25.272C47.8695 25.0267 47.9255 24.7467 47.9362 24.432C47.9522 24.112 47.9602 23.8533 47.9602 23.656L48.5522 23.832C47.9709 23.9227 47.4722 24.0027 47.0562 24.072C46.6402 24.1413 46.2829 24.208 45.9842 24.272C45.6855 24.3307 45.4215 24.3973 45.1922 24.472C44.9682 24.552 44.7789 24.6453 44.6242 24.752C44.4695 24.8587 44.3495 24.9813 44.2642 25.12C44.1842 25.2587 44.1442 25.4213 44.1442 25.608C44.1442 25.8213 44.1975 26.0107 44.3042 26.176C44.4109 26.336 44.5655 26.464 44.7682 26.56C44.9762 26.656 45.2322 26.704 45.5362 26.704ZM52.6066 31.84L54.2706 27.272L54.3026 28.616L50.5346 19.36H52.5426L55.2146 26.208H54.7026L57.3026 19.36H59.2306L54.4146 31.84H52.6066ZM66.3948 28V18.288H62.6668V16.48H72.0508V18.288H68.3228V28H66.3948ZM75.8647 28.24C75.0007 28.24 74.246 28.0453 73.6007 27.656C72.9554 27.2667 72.454 26.7307 72.0967 26.048C71.7447 25.36 71.5687 24.5707 71.5687 23.68C71.5687 22.7733 71.75 21.9787 72.1127 21.296C72.4754 20.6133 72.9794 20.08 73.6247 19.696C74.27 19.312 75.0167 19.12 75.8647 19.12C76.734 19.12 77.4914 19.3147 78.1367 19.704C78.782 20.0933 79.2834 20.632 79.6407 21.32C79.998 22.0027 80.1767 22.7893 80.1767 23.68C80.1767 24.576 79.9954 25.368 79.6327 26.056C79.2754 26.7387 78.774 27.2747 78.1287 27.664C77.4834 28.048 76.7287 28.24 75.8647 28.24ZM75.8647 26.432C76.6327 26.432 77.2034 26.176 77.5767 25.664C77.95 25.152 78.1367 24.4907 78.1367 23.68C78.1367 22.8427 77.9474 22.176 77.5687 21.68C77.19 21.1787 76.622 20.928 75.8647 20.928C75.3474 20.928 74.9207 21.0453 74.5847 21.28C74.254 21.5093 74.0087 21.832 73.8487 22.248C73.6887 22.6587 73.6087 23.136 73.6087 23.68C73.6087 24.5173 73.798 25.1867 74.1767 25.688C74.5607 26.184 75.1234 26.432 75.8647 26.432ZM85.1425 28V16.48H88.8145C88.9105 16.48 89.0998 16.4827 89.3825 16.488C89.6705 16.4933 89.9478 16.512 90.2145 16.544C91.1265 16.6613 91.8971 16.9867 92.5265 17.52C93.1611 18.048 93.6411 18.7227 93.9665 19.544C94.2918 20.3653 94.4545 21.264 94.4545 22.24C94.4545 23.216 94.2918 24.1147 93.9665 24.936C93.6411 25.7573 93.1611 26.4347 92.5265 26.968C91.8971 27.496 91.1265 27.8187 90.2145 27.936C89.9531 27.968 89.6785 27.9867 89.3905 27.992C89.1025 27.9973 88.9105 28 88.8145 28H85.1425ZM87.1025 26.184H88.8145C88.9745 26.184 89.1771 26.1787 89.4225 26.168C89.6731 26.1573 89.8945 26.1333 90.0865 26.096C90.6305 25.9947 91.0731 25.752 91.4145 25.368C91.7558 24.984 92.0065 24.5173 92.1665 23.968C92.3318 23.4187 92.4145 22.8427 92.4145 22.24C92.4145 21.616 92.3318 21.0293 92.1665 20.48C92.0011 19.9307 91.7451 19.4693 91.3985 19.096C91.0571 18.7227 90.6198 18.4853 90.0865 18.384C89.8945 18.3413 89.6731 18.3173 89.4225 18.312C89.1771 18.3013 88.9745 18.296 88.8145 18.296H87.1025V26.184ZM100.162 28.24C99.2976 28.24 98.5429 28.0453 97.8976 27.656C97.2523 27.2667 96.7509 26.7307 96.3936 26.048C96.0416 25.36 95.8656 24.5707 95.8656 23.68C95.8656 22.7733 96.0469 21.9787 96.4096 21.296C96.7723 20.6133 97.2763 20.08 97.9216 19.696C98.5669 19.312 99.3136 19.12 100.162 19.12C101.031 19.12 101.788 19.3147 102.434 19.704C103.079 20.0933 103.58 20.632 103.938 21.32C104.295 22.0027 104.474 22.7893 104.474 23.68C104.474 24.576 104.292 25.368 103.93 26.056C103.572 26.7387 103.071 27.2747 102.426 27.664C101.78 28.048 101.026 28.24 100.162 28.24ZM100.162 26.432C100.93 26.432 101.5 26.176 101.874 25.664C102.247 25.152 102.434 24.4907 102.434 23.68C102.434 22.8427 102.244 22.176 101.866 21.68C101.487 21.1787 100.919 20.928 100.162 20.928C99.6443 20.928 99.2176 21.0453 98.8816 21.28C98.5509 21.5093 98.3056 21.832 98.1456 22.248C97.9856 22.6587 97.9056 23.136 97.9056 23.68C97.9056 24.5173 98.0949 25.1867 98.4736 25.688C98.8576 26.184 99.4203 26.432 100.162 26.432Z" fill="#333333"/>
</svg>
