<svg width="25" height="24" viewBox="0 0 25 24" fill="none" xmlns="http://www.w3.org/2000/svg">
<path d="M17.0834 3.56V2C17.0834 1.59 16.7434 1.25 16.3334 1.25C15.9234 1.25 15.5834 1.59 15.5834 2V3.5H9.08336V2C9.08336 1.59 8.74336 1.25 8.33336 1.25C7.92336 1.25 7.58336 1.59 7.58336 2V3.56C4.88336 3.81 3.57336 5.42 3.37336 7.81C3.35336 8.1 3.59336 8.34 3.87336 8.34H20.7934C21.0834 8.34 21.3234 8.09 21.2934 7.81C21.0934 5.42 19.7834 3.81 17.0834 3.56Z" fill="#6366F1"/>
<path d="M20.3334 9.83984H4.33337C3.78337 9.83984 3.33337 10.2898 3.33337 10.8398V16.9998C3.33337 19.9998 4.83337 21.9998 8.33337 21.9998H16.3334C19.8334 21.9998 21.3334 19.9998 21.3334 16.9998V10.8398C21.3334 10.2898 20.8834 9.83984 20.3334 9.83984ZM9.54337 18.2098C9.49337 18.2498 9.44337 18.2998 9.39337 18.3298C9.33337 18.3698 9.27337 18.3998 9.21337 18.4198C9.15337 18.4498 9.09337 18.4698 9.03337 18.4798C8.96337 18.4898 8.90337 18.4998 8.83337 18.4998C8.70337 18.4998 8.57337 18.4698 8.45337 18.4198C8.32337 18.3698 8.22337 18.2998 8.12337 18.2098C7.94337 18.0198 7.83337 17.7598 7.83337 17.4998C7.83337 17.2398 7.94337 16.9798 8.12337 16.7898C8.22337 16.6998 8.32337 16.6298 8.45337 16.5798C8.63337 16.4998 8.83337 16.4798 9.03337 16.5198C9.09337 16.5298 9.15337 16.5498 9.21337 16.5798C9.27337 16.5998 9.33337 16.6298 9.39337 16.6698C9.44337 16.7098 9.49337 16.7498 9.54337 16.7898C9.72337 16.9798 9.83337 17.2398 9.83337 17.4998C9.83337 17.7598 9.72337 18.0198 9.54337 18.2098ZM9.54337 14.7098C9.35337 14.8898 9.09337 14.9998 8.83337 14.9998C8.57337 14.9998 8.31337 14.8898 8.12337 14.7098C7.94337 14.5198 7.83337 14.2598 7.83337 13.9998C7.83337 13.7398 7.94337 13.4798 8.12337 13.2898C8.40337 13.0098 8.84337 12.9198 9.21337 13.0798C9.34337 13.1298 9.45337 13.1998 9.54337 13.2898C9.72337 13.4798 9.83337 13.7398 9.83337 13.9998C9.83337 14.2598 9.72337 14.5198 9.54337 14.7098ZM13.0434 18.2098C12.8534 18.3898 12.5934 18.4998 12.3334 18.4998C12.0734 18.4998 11.8134 18.3898 11.6234 18.2098C11.4434 18.0198 11.3334 17.7598 11.3334 17.4998C11.3334 17.2398 11.4434 16.9798 11.6234 16.7898C11.9934 16.4198 12.6734 16.4198 13.0434 16.7898C13.2234 16.9798 13.3334 17.2398 13.3334 17.4998C13.3334 17.7598 13.2234 18.0198 13.0434 18.2098ZM13.0434 14.7098C12.9934 14.7498 12.9434 14.7898 12.8934 14.8298C12.8334 14.8698 12.7734 14.8998 12.7134 14.9198C12.6534 14.9498 12.5934 14.9698 12.5334 14.9798C12.4634 14.9898 12.4034 14.9998 12.3334 14.9998C12.0734 14.9998 11.8134 14.8898 11.6234 14.7098C11.4434 14.5198 11.3334 14.2598 11.3334 13.9998C11.3334 13.7398 11.4434 13.4798 11.6234 13.2898C11.7134 13.1998 11.8234 13.1298 11.9534 13.0798C12.3234 12.9198 12.7634 13.0098 13.0434 13.2898C13.2234 13.4798 13.3334 13.7398 13.3334 13.9998C13.3334 14.2598 13.2234 14.5198 13.0434 14.7098ZM16.5434 18.2098C16.3534 18.3898 16.0934 18.4998 15.8334 18.4998C15.5734 18.4998 15.3134 18.3898 15.1234 18.2098C14.9434 18.0198 14.8334 17.7598 14.8334 17.4998C14.8334 17.2398 14.9434 16.9798 15.1234 16.7898C15.4934 16.4198 16.1734 16.4198 16.5434 16.7898C16.7234 16.9798 16.8334 17.2398 16.8334 17.4998C16.8334 17.7598 16.7234 18.0198 16.5434 18.2098ZM16.5434 14.7098C16.4934 14.7498 16.4434 14.7898 16.3934 14.8298C16.3334 14.8698 16.2734 14.8998 16.2134 14.9198C16.1534 14.9498 16.0934 14.9698 16.0334 14.9798C15.9634 14.9898 15.8934 14.9998 15.8334 14.9998C15.5734 14.9998 15.3134 14.8898 15.1234 14.7098C14.9434 14.5198 14.8334 14.2598 14.8334 13.9998C14.8334 13.7398 14.9434 13.4798 15.1234 13.2898C15.2234 13.1998 15.3234 13.1298 15.4534 13.0798C15.6334 12.9998 15.8334 12.9798 16.0334 13.0198C16.0934 13.0298 16.1534 13.0498 16.2134 13.0798C16.2734 13.0998 16.3334 13.1298 16.3934 13.1698C16.4434 13.2098 16.4934 13.2498 16.5434 13.2898C16.7234 13.4798 16.8334 13.7398 16.8334 13.9998C16.8334 14.2598 16.7234 14.5198 16.5434 14.7098Z" fill="#6366F1"/>
</svg>
