<svg width="16" height="17" viewBox="0 0 16 17" fill="none" xmlns="http://www.w3.org/2000/svg">
<path d="M7 5.33331C6.91159 5.33331 6.82681 5.36843 6.7643 5.43094C6.70179 5.49346 6.66667 5.57824 6.66667 5.66665C6.66667 5.75505 6.70179 5.83984 6.7643 5.90235C6.82681 5.96486 6.91159 5.99998 7 5.99998H9C9.08841 5.99998 9.17319 5.96486 9.2357 5.90235C9.29821 5.83984 9.33333 5.75505 9.33333 5.66665C9.33333 5.57824 9.29821 5.49346 9.2357 5.43094C9.17319 5.36843 9.08841 5.33331 9 5.33331H7ZM6.33333 8.99998C6.33333 9.17679 6.2631 9.34636 6.13807 9.47138C6.01305 9.59641 5.84348 9.66665 5.66667 9.66665C5.48986 9.66665 5.32029 9.59641 5.19526 9.47138C5.07024 9.34636 5 9.17679 5 8.99998C5 8.82317 5.07024 8.6536 5.19526 8.52858C5.32029 8.40355 5.48986 8.33331 5.66667 8.33331C5.84348 8.33331 6.01305 8.40355 6.13807 8.52858C6.2631 8.6536 6.33333 8.82317 6.33333 8.99998ZM6.33333 11.3333C6.33333 11.5101 6.2631 11.6797 6.13807 11.8047C6.01305 11.9297 5.84348 12 5.66667 12C5.48986 12 5.32029 11.9297 5.19526 11.8047C5.07024 11.6797 5 11.5101 5 11.3333C5 11.1565 5.07024 10.9869 5.19526 10.8619C5.32029 10.7369 5.48986 10.6666 5.66667 10.6666C5.84348 10.6666 6.01305 10.7369 6.13807 10.8619C6.2631 10.9869 6.33333 11.1565 6.33333 11.3333ZM8 9.66665C8.17681 9.66665 8.34638 9.59641 8.4714 9.47138C8.59643 9.34636 8.66667 9.17679 8.66667 8.99998C8.66667 8.82317 8.59643 8.6536 8.4714 8.52858C8.34638 8.40355 8.17681 8.33331 8 8.33331C7.82319 8.33331 7.65362 8.40355 7.5286 8.52858C7.40357 8.6536 7.33333 8.82317 7.33333 8.99998C7.33333 9.17679 7.40357 9.34636 7.5286 9.47138C7.65362 9.59641 7.82319 9.66665 8 9.66665ZM8.66667 11.3333C8.66667 11.5101 8.59643 11.6797 8.4714 11.8047C8.34638 11.9297 8.17681 12 8 12C7.82319 12 7.65362 11.9297 7.5286 11.8047C7.40357 11.6797 7.33333 11.5101 7.33333 11.3333C7.33333 11.1565 7.40357 10.9869 7.5286 10.8619C7.65362 10.7369 7.82319 10.6666 8 10.6666C8.17681 10.6666 8.34638 10.7369 8.4714 10.8619C8.59643 10.9869 8.66667 11.1565 8.66667 11.3333ZM10.3333 9.66665C10.5101 9.66665 10.6797 9.59641 10.8047 9.47138C10.9298 9.34636 11 9.17679 11 8.99998C11 8.82317 10.9298 8.6536 10.8047 8.52858C10.6797 8.40355 10.5101 8.33331 10.3333 8.33331C10.1565 8.33331 9.98695 8.40355 9.86193 8.52858C9.7369 8.6536 9.66667 8.82317 9.66667 8.99998C9.66667 9.17679 9.7369 9.34636 9.86193 9.47138C9.98695 9.59641 10.1565 9.66665 10.3333 9.66665Z" fill="#666666"/>
<path fill-rule="evenodd" clip-rule="evenodd" d="M5.33333 2.83331C5.42174 2.83331 5.50652 2.86843 5.56904 2.93094C5.63155 2.99346 5.66667 3.07824 5.66667 3.16665V3.83331H10.3333V3.16665C10.3333 3.07824 10.3685 2.99346 10.431 2.93094C10.4935 2.86843 10.5783 2.83331 10.6667 2.83331C10.7551 2.83331 10.8399 2.86843 10.9024 2.93094C10.9649 2.99346 11 3.07824 11 3.16665V3.83531C11.1631 3.83665 11.3084 3.84242 11.436 3.85265C11.6793 3.87265 11.8927 3.91465 12.09 4.01465C12.4035 4.17458 12.6584 4.42965 12.818 4.74331C12.9187 4.94065 12.9607 5.15398 12.9807 5.39665C13 5.63331 13 5.92465 13 6.28598V11.3806C13 11.742 13 12.034 12.9807 12.2693C12.9607 12.5126 12.9187 12.726 12.818 12.9233C12.6582 13.2367 12.4034 13.4916 12.09 13.6513C11.8927 13.752 11.6793 13.794 11.4367 13.814C11.2 13.8333 10.9087 13.8333 10.548 13.8333H5.45267C5.09133 13.8333 4.79933 13.8333 4.564 13.814C4.32067 13.794 4.10733 13.752 3.91 13.6513C3.59634 13.4917 3.34126 13.2368 3.18133 12.9233C3.08133 12.726 3.03933 12.5126 3.01933 12.27C3 12.0333 3 11.7413 3 11.38V6.28665C3 5.96998 3 5.70798 3.01333 5.48865L3.01933 5.39798C3.03933 5.15465 3.08133 4.94131 3.18133 4.74398C3.34115 4.43022 3.59624 4.17513 3.91 4.01531C4.10733 3.91531 4.32067 3.87331 4.56333 3.85331C4.69178 3.84309 4.83733 3.83731 5 3.83598V3.16665C5 3.07824 5.03512 2.99346 5.09763 2.93094C5.16014 2.86843 5.24493 2.83331 5.33333 2.83331ZM5 4.83331V4.50198C4.87254 4.50303 4.74514 4.50815 4.618 4.51731C4.41667 4.53331 4.30067 4.56398 4.21267 4.60865C4.02434 4.70455 3.87124 4.85765 3.77533 5.04598C3.73067 5.13398 3.7 5.24998 3.684 5.45131C3.66667 5.65731 3.66667 5.92131 3.66667 6.29998V6.66665H12.3333V6.29998C12.3333 5.92131 12.3333 5.65731 12.316 5.45131C12.3 5.24998 12.2693 5.13398 12.2247 5.04598C12.1288 4.85765 11.9757 4.70455 11.7873 4.60865C11.6993 4.56398 11.5833 4.53331 11.382 4.51731C11.2549 4.50815 11.1275 4.50303 11 4.50198V4.83331C11 4.92172 10.9649 5.0065 10.9024 5.06902C10.8399 5.13153 10.7551 5.16665 10.6667 5.16665C10.5783 5.16665 10.4935 5.13153 10.431 5.06902C10.3685 5.0065 10.3333 4.92172 10.3333 4.83331V4.49998H5.66667V4.83331C5.66667 4.92172 5.63155 5.0065 5.56904 5.06902C5.50652 5.13153 5.42174 5.16665 5.33333 5.16665C5.24493 5.16665 5.16014 5.13153 5.09763 5.06902C5.03512 5.0065 5 4.92172 5 4.83331ZM12.3333 7.33331H3.66667V11.3666C3.66667 11.7453 3.66667 12.01 3.684 12.2153C3.7 12.4166 3.73067 12.5326 3.77533 12.6206C3.87124 12.809 4.02434 12.9621 4.21267 13.058C4.30067 13.1026 4.41667 13.1333 4.618 13.1493C4.824 13.1666 5.088 13.1666 5.46667 13.1666H10.5333C10.912 13.1666 11.1767 13.1666 11.382 13.1493C11.5833 13.1333 11.6993 13.1026 11.7873 13.058C11.9757 12.9621 12.1288 12.809 12.2247 12.6206C12.2693 12.5326 12.3 12.4166 12.316 12.2153C12.3333 12.01 12.3333 11.7453 12.3333 11.3666V7.33331Z" fill="#666666"/>
</svg>
