<svg width="23" height="22" viewBox="0 0 23 22" fill="none" xmlns="http://www.w3.org/2000/svg">
<g clip-path="url(#clip0_2250_2196)">
<path d="M20.1664 5.26088H17.8708L16.6034 3.34784C16.1251 2.63045 15.2882 2.20001 14.4273 2.20001H9.16644C8.30557 2.20001 7.46861 2.63045 6.99035 3.34784L5.72296 5.26088H3.42731C1.96861 5.26088 0.796875 6.43262 0.796875 7.89132V17.1696C0.796875 18.6283 1.96861 19.8 3.42731 19.8H20.1664C21.6251 19.8 22.7969 18.6283 22.7969 17.1696V7.89132C22.7969 6.43262 21.6251 5.26088 20.1664 5.26088ZM11.7969 17.6478C8.52079 17.6478 5.86644 14.9935 5.86644 11.7174C5.86644 8.44132 8.52079 5.81088 11.7969 5.81088C15.073 5.81088 17.7273 8.46523 17.7273 11.7413C17.7273 14.9935 15.073 17.6478 11.7969 17.6478ZM19.8317 8.9674C19.8077 8.9674 19.7838 8.9674 19.736 8.9674H18.7795C18.349 8.94349 18.0143 8.58479 18.0382 8.15436C18.0621 7.74784 18.373 7.43697 18.7795 7.41306H19.736C20.1664 7.38914 20.5251 7.72393 20.549 8.15436C20.573 8.58479 20.2621 8.94349 19.8317 8.9674Z" fill="#0088FF"/>
<path d="M11.7969 8.44135C9.97947 8.44135 8.49686 9.92395 8.49686 11.7413C8.49686 13.5587 9.97947 15.0174 11.7969 15.0174C13.6142 15.0174 15.0969 13.5348 15.0969 11.7174C15.0969 9.90004 13.6142 8.44135 11.7969 8.44135Z" fill="#0088FF"/>
</g>
<defs>
<clipPath id="clip0_2250_2196">
<rect width="22" height="22" fill="white" transform="translate(0.796875)"/>
</clipPath>
</defs>
</svg>
