<svg width="20" height="20" viewBox="0 0 20 20" fill="none" xmlns="http://www.w3.org/2000/svg">
<path d="M2.99953 3.00391H16.9833C17.2008 3.00391 17.3847 3.07905 17.5349 3.22934C17.6851 3.37962 17.7602 3.56359 17.7602 3.78125V16.2188C17.7602 16.4364 17.6851 16.6204 17.5349 16.7707C17.3847 16.921 17.2008 16.9961 16.9833 16.9961H2.99953C2.78201 16.9961 2.59815 16.921 2.44795 16.7707C2.29775 16.6204 2.22266 16.4364 2.22266 16.2188V3.78125C2.22266 3.56359 2.29775 3.37962 2.44795 3.22934C2.59815 3.07905 2.78201 3.00391 2.99953 3.00391ZM16.2064 6.29984L10.0536 11.819L3.77641 6.2843V15.4414H16.2064V6.29984ZM4.18038 4.55859L10.038 9.7357L15.818 4.55859H4.18038Z" fill="#2196F3"/>
</svg>
