<svg width="20" height="20" viewBox="0 0 20 20" fill="none" xmlns="http://www.w3.org/2000/svg">
<path d="M11.36 11.166H13.3022L14.0791 8.05664H11.36V6.50195C11.36 6.14956 11.3755 5.89563 11.4066 5.74016C11.4688 5.49141 11.6034 5.29966 11.8106 5.16492C12.0592 5.01982 12.4269 4.94727 12.9138 4.94727H14.0791V2.33539C13.903 2.31466 13.6233 2.29393 13.24 2.2732C12.7636 2.24211 12.3026 2.22656 11.8572 2.22656C11.1425 2.22656 10.5132 2.36908 9.96939 2.6541C9.42558 2.93913 9.00866 3.34594 8.71863 3.87453C8.40788 4.44458 8.2525 5.1131 8.2525 5.88008V8.05664H5.92188V11.166H8.2525V17.7734H11.36V11.166Z" fill="#171930"/>
</svg>
