<svg width="16" height="16" viewBox="0 0 16 16" fill="none" xmlns="http://www.w3.org/2000/svg">
<path d="M7.99141 5.66797C7.56671 5.66797 7.17569 5.77161 6.81833 5.97891C6.46096 6.1862 6.1787 6.46863 5.97153 6.82621C5.76436 7.18379 5.66078 7.57505 5.66078 8C5.66078 8.42495 5.76436 8.81621 5.97153 9.17379C6.1787 9.53137 6.46096 9.8138 6.81833 10.0211C7.17569 10.2284 7.56671 10.332 7.99141 10.332C8.4161 10.332 8.80713 10.2284 9.16449 10.0211C9.52185 9.8138 9.80412 9.53137 10.0113 9.17379C10.2184 8.81621 10.322 8.42495 10.322 8C10.322 7.57505 10.2184 7.18379 10.0113 6.82621C9.80412 6.46863 9.52185 6.1862 9.16449 5.97891C8.80713 5.77161 8.4161 5.66797 7.99141 5.66797ZM7.99141 4.11328C8.69577 4.11328 9.34576 4.28689 9.94136 4.6341C10.537 4.98131 11.0083 5.4529 11.3553 6.04887C11.7023 6.64483 11.8758 7.29521 11.8758 8C11.8758 8.70479 11.7023 9.35517 11.3553 9.95113C11.0083 10.5471 10.537 11.0187 9.94136 11.3659C9.34576 11.7131 8.69577 11.8867 7.99141 11.8867C7.28704 11.8867 6.63705 11.7131 6.04145 11.3659C5.44585 11.0187 4.97454 10.5471 4.62754 9.95113C4.28053 9.35517 4.10703 8.70479 4.10703 8C4.10703 7.29521 4.28053 6.64483 4.62754 6.04887C4.97454 5.4529 5.44585 4.98131 6.04145 4.6341C6.63705 4.28689 7.28704 4.11328 7.99141 4.11328ZM13.0411 3.91117C13.0411 4.18065 12.9453 4.41126 12.7537 4.60301C12.562 4.79475 12.3341 4.89062 12.07 4.89062C11.8059 4.89062 11.578 4.79475 11.3864 4.60301C11.1947 4.41126 11.0989 4.18324 11.0989 3.91895C11.0989 3.65465 11.1947 3.42663 11.3864 3.23488C11.578 3.04314 11.8059 2.94727 12.07 2.94727C12.3341 2.94727 12.562 3.04314 12.7537 3.23488C12.9453 3.42663 13.0411 3.65206 13.0411 3.91117ZM7.99141 1.78125C7.03844 1.78125 6.39104 1.78384 6.04922 1.78902C5.70739 1.79421 5.31378 1.80716 4.86837 1.82789C4.30902 1.84862 3.84289 1.93154 3.46999 2.07664C3.14889 2.20102 2.86662 2.38499 2.6232 2.62855C2.37978 2.87212 2.19592 3.15456 2.07162 3.47586C1.9266 3.84898 1.84374 4.31539 1.82302 4.87508C1.8023 5.30003 1.78935 5.68092 1.78418 6.01777C1.779 6.35462 1.77641 7.01536 1.77641 8C1.77641 8.95354 1.779 9.60133 1.78418 9.94336C1.78935 10.2854 1.8023 10.6792 1.82302 11.1249C1.84374 11.6846 1.9266 12.151 2.07162 12.5241C2.19592 12.8454 2.37978 13.1279 2.6232 13.3714C2.86662 13.615 3.14889 13.7938 3.46999 13.9078C3.84289 14.0633 4.30902 14.1514 4.86837 14.1721C5.29306 14.1928 5.67373 14.2058 6.01038 14.211C6.34702 14.2162 7.00736 14.2188 7.99141 14.2188C8.94437 14.2188 9.59177 14.2162 9.93359 14.211C10.2754 14.2058 10.669 14.1928 11.1144 14.1721C11.6738 14.1514 12.1399 14.0685 12.5128 13.9234C12.8339 13.799 13.1162 13.615 13.3596 13.3714C13.603 13.1279 13.7817 12.8454 13.8957 12.5241C14.051 12.151 14.1391 11.6846 14.1598 11.1249C14.1805 10.7 14.1935 10.3191 14.1986 9.98223C14.2038 9.64538 14.2064 8.98464 14.2064 8C14.2064 7.04646 14.2038 6.39867 14.1986 6.05664C14.1935 5.71461 14.1805 5.32076 14.1598 4.87508C14.1391 4.31539 14.0562 3.84898 13.9112 3.47586C13.7869 3.15456 13.603 2.87212 13.3596 2.62855C13.1162 2.38499 12.8339 2.20102 12.5128 2.07664C12.1399 1.93154 11.6738 1.84862 11.1144 1.82789C10.6898 1.80716 10.3091 1.79421 9.97244 1.78902C9.63579 1.78384 8.97545 1.78125 7.99141 1.78125ZM7.99141 0.226562C9.00652 0.226562 9.70053 0.231745 10.0734 0.242109C10.3842 0.242109 10.7571 0.252474 11.1921 0.273203C11.9172 0.304296 12.5439 0.42349 13.0722 0.630781C13.6004 0.838073 14.0614 1.13865 14.455 1.5325C14.8486 1.92635 15.149 2.38758 15.3562 2.91617C15.5633 3.44477 15.6825 4.07182 15.7135 4.79734C15.7343 5.24302 15.7446 5.61615 15.7446 5.91672C15.755 6.31057 15.7602 7.01018 15.7602 8.01555C15.7602 9.02091 15.755 9.71016 15.7446 10.0833C15.7446 10.3942 15.7343 10.7673 15.7135 11.2027C15.6825 11.9282 15.5633 12.5552 15.3562 13.0838C15.149 13.6124 14.8486 14.0736 14.455 14.4675C14.0614 14.8614 13.6004 15.1619 13.0722 15.3692C12.5439 15.5765 11.9172 15.6957 11.1921 15.7268C10.7467 15.7475 10.3738 15.7579 10.0734 15.7579C9.67981 15.7683 8.98063 15.7734 7.97587 15.7734C6.97111 15.7734 6.28228 15.7683 5.90938 15.7579C5.59863 15.7579 5.22573 15.7475 4.79068 15.7268C4.0656 15.6957 3.43892 15.5765 2.91064 15.3692C2.38237 15.1619 1.92142 14.8614 1.52781 14.4675C1.13419 14.0736 0.833798 13.6124 0.626631 13.0838C0.419465 12.5552 0.300344 11.9282 0.269269 11.2027C0.248552 10.757 0.238194 10.3839 0.238194 10.0833C0.227835 9.68943 0.222656 8.98982 0.222656 7.98445C0.222656 6.97909 0.227835 6.28984 0.238194 5.91672C0.238194 5.60578 0.248552 5.23266 0.269269 4.79734C0.300344 4.07182 0.419465 3.44477 0.626631 2.91617C0.833798 2.38758 1.13419 1.92635 1.52781 1.5325C1.92142 1.13865 2.38237 0.838073 2.91064 0.630781C3.43892 0.42349 4.0656 0.304296 4.79068 0.273203C5.23609 0.252474 5.60899 0.242109 5.90938 0.242109C6.303 0.231745 6.99701 0.226562 7.99141 0.226562Z" fill="#171930"/>
</svg>
