<svg width="20" height="20" viewBox="0 0 20 20" fill="none" xmlns="http://www.w3.org/2000/svg">
<path d="M5.70466 4.55859C5.6943 4.8799 5.60107 5.1701 5.42498 5.42922C5.24889 5.68833 5.01583 5.87749 4.72579 5.99668C4.43576 6.11587 4.13537 6.14437 3.82462 6.08219C3.51387 6.02 3.24714 5.8749 3.02444 5.64688C2.80173 5.41885 2.66448 5.14937 2.61269 4.83844C2.5609 4.5275 2.59716 4.22693 2.72146 3.93672C2.84576 3.64651 3.04256 3.4159 3.31188 3.24488C3.5812 3.07387 3.87641 2.99354 4.19752 3.00391C4.61185 3.01427 4.96662 3.16974 5.26184 3.47031C5.55705 3.77089 5.70466 4.13365 5.70466 4.55859ZM5.75127 7.26375H2.64377V16.9961H5.75127V7.26375ZM10.6611 7.26375H7.56916V16.9961H10.63V11.8967C10.63 11.3474 10.7543 10.881 11.0029 10.4975C11.2412 10.1451 11.5468 9.90154 11.9197 9.7668C12.2926 9.63206 12.6655 9.62169 13.0384 9.7357C13.4113 9.84971 13.7116 10.0777 13.9395 10.4198C14.1985 10.8136 14.328 11.3059 14.328 11.8967V16.9961H17.4044V10.8395C17.4044 9.92745 17.2076 9.15529 16.814 8.52305C16.4721 7.97372 15.9957 7.55914 15.3845 7.2793C14.8252 7.04091 14.2192 6.93727 13.5666 6.96836C12.9348 6.99945 12.3495 7.15751 11.8109 7.44254C11.2723 7.72756 10.8786 8.10328 10.63 8.56969L10.6611 7.26375Z" fill="#171930"/>
</svg>
