<svg width="59" height="65" viewBox="0 0 59 65" fill="none" xmlns="http://www.w3.org/2000/svg">
<path d="M34.9119 55.532C35.0104 56.6475 35.2507 57.7457 35.6269 58.7998H16.8848C13.5716 58.7964 10.3951 57.4719 8.05233 55.117C5.70954 52.7621 4.39186 49.5692 4.38843 46.2388V26.4678C5.24218 26.7541 5.99623 27.2807 6.56103 27.985C7.12584 28.6894 7.47765 29.5419 7.5747 30.4413L7.63946 31.0349V46.2388C7.6422 48.7027 8.61715 51.0648 10.3504 52.807C12.0836 54.5493 14.4337 55.5292 16.8848 55.532H34.9119Z" fill="#0088FF"/>
<path d="M54.6431 20.8461V42.781C53.6231 42.1923 52.5287 41.7447 51.3895 41.4504V20.8461C51.3875 18.3828 50.413 16.0209 48.6801 14.279C46.9472 12.5372 44.5974 11.5577 42.1467 11.5556H28.9354L26.6298 11.2952C25.7694 11.2014 24.9513 10.8707 24.2657 10.3396C23.5802 9.80853 23.0537 9.09764 22.7441 8.28516H42.1467C45.4599 8.2886 48.6365 9.61309 50.9792 11.968C53.322 14.3229 54.6397 17.5158 54.6431 20.8461Z" fill="#0088FF"/>
<path d="M8.66252 0L8.7765 1.02852C8.99219 2.95656 9.85299 4.7538 11.2179 6.12572C12.5827 7.49764 14.3707 8.3629 16.2889 8.5797L17.3095 8.69427L16.2889 8.81144C14.3707 9.02824 12.5827 9.89349 11.2179 11.2654C9.85299 12.6373 8.99219 14.4346 8.7765 16.3626L8.66252 17.4042L8.54854 16.3626C8.33285 14.4346 7.47205 12.6373 6.10718 11.2654C4.74231 9.89349 2.95432 9.02824 1.03619 8.81144L0 8.69427L1.03619 8.5797C2.95432 8.3629 4.74231 7.49764 6.10718 6.12572C7.47205 4.7538 8.33285 2.95656 8.54854 1.02852L8.66252 0Z" fill="#0088FF"/>
<path d="M20.3616 8.69434C20.4778 9.73862 20.9436 10.7122 21.6825 11.4555C22.4215 12.1987 23.3898 12.6675 24.4286 12.785C23.3898 12.9014 22.4214 13.3696 21.6823 14.1125C20.9432 14.8554 20.4775 15.8289 20.3616 16.873C20.2448 15.8288 19.7784 14.8555 19.0389 14.1127C18.2995 13.37 17.3309 12.9018 16.292 12.785C17.3309 12.6672 18.2993 12.1983 19.0387 11.4552C19.778 10.7121 20.2444 9.73866 20.3616 8.69434Z" fill="#0088FF"/>
<path d="M5.15818 17.3939C5.25165 18.2324 5.62585 19.014 6.21939 19.6106C6.81294 20.2073 7.59058 20.5834 8.42476 20.6773C7.59136 20.7711 6.81432 21.1464 6.22088 21.742C5.62743 22.3376 5.25275 23.118 5.15818 23.9556C5.06472 23.1171 4.69052 22.3354 4.09698 21.7388C3.50343 21.1422 2.72578 20.7661 1.8916 20.6721C2.72578 20.5782 3.50343 20.2021 4.09698 19.6054C4.69052 19.0088 5.06472 18.2272 5.15818 17.3887V17.3939Z" fill="#0088FF"/>
<path d="M46.2011 22.2422H22.1771C20.8566 22.2422 19.7861 23.3182 19.7861 24.6455V25.8459C19.7861 27.1733 20.8566 28.2493 22.1771 28.2493H46.2011C47.5216 28.2493 48.5921 27.1733 48.5921 25.8459V24.6455C48.5921 23.3182 47.5216 22.2422 46.2011 22.2422Z" fill="#0088FF"/>
<path d="M14.5015 22.2422H14.1984C12.6318 22.2422 11.3618 23.5187 11.3618 25.0934V25.3981C11.3618 26.9727 12.6318 28.2493 14.1984 28.2493H14.5015C16.068 28.2493 17.338 26.9727 17.338 25.3981V25.0934C17.338 23.5187 16.068 22.2422 14.5015 22.2422Z" fill="#0088FF"/>
<g opacity="0.6">
<path d="M46.2023 32.0615H22.1784C20.8578 32.0615 19.7874 33.1375 19.7874 34.4649V35.6653C19.7874 36.9926 20.8578 38.0686 22.1784 38.0686H46.2023C47.5229 38.0686 48.5933 36.9926 48.5933 35.6653V34.4649C48.5933 33.1375 47.5229 32.0615 46.2023 32.0615Z" fill="#0088FF"/>
<path d="M14.5019 32.0615H14.1989C12.6323 32.0615 11.3623 33.3381 11.3623 34.9127V35.2174C11.3623 36.7921 12.6323 38.0686 14.1989 38.0686H14.5019C16.0685 38.0686 17.3385 36.7921 17.3385 35.2174V34.9127C17.3385 33.3381 16.0685 32.0615 14.5019 32.0615Z" fill="#0088FF"/>
</g>
<g opacity="0.2">
<path d="M43.4202 41.8828C40.4807 42.9982 38.0312 45.1272 36.5088 47.8899H22.1758C21.5421 47.8892 20.9346 47.6357 20.4867 47.1851C20.0389 46.7344 19.7874 46.1235 19.7874 45.4865V44.2836C19.7874 43.6468 20.039 43.0362 20.4869 42.586C20.9348 42.1357 21.5423 41.8828 22.1758 41.8828H43.4202Z" fill="#0088FF"/>
<path d="M14.5019 41.8828H14.1989C12.6323 41.8828 11.3623 43.1593 11.3623 44.734V45.0387C11.3623 46.6134 12.6323 47.8899 14.1989 47.8899H14.5019C16.0685 47.8899 17.3385 46.6134 17.3385 45.0387V44.734C17.3385 43.1593 16.0685 41.8828 14.5019 41.8828Z" fill="#0088FF"/>
</g>
<path d="M42.4685 51.5359C42.4586 51.2086 42.547 50.8859 42.7222 50.6099C42.8974 50.3338 43.1512 50.1172 43.4506 49.9882C43.75 49.8592 44.0811 49.8239 44.4008 49.8867C44.7205 49.9496 45.014 50.1078 45.2429 50.3407C45.8905 50.963 46.5174 51.6088 47.1599 52.2337C47.393 52.4603 47.5847 52.6972 47.88 52.6868C48.1753 52.6764 48.3385 52.4577 48.5613 52.2363L54.8976 45.8907C55.2913 45.4976 55.6954 45.1096 56.3094 45.1539C56.6355 45.1502 56.9558 45.2414 57.2315 45.4165C57.5073 45.5916 57.7268 45.8431 57.8637 46.1407C58.0049 46.4178 58.0578 46.732 58.0152 47.0404C57.9726 47.3488 57.8364 47.6366 57.6253 47.8645C57.0218 48.5857 56.3068 49.2028 55.641 49.8668C53.4935 52.0098 51.3357 54.1398 49.1882 56.2801C49.0122 56.4634 48.8017 56.6098 48.5691 56.7108C48.3364 56.8119 48.0861 56.8655 47.8326 56.8686C47.5792 56.8718 47.3277 56.8244 47.0926 56.7292C46.8575 56.634 46.6435 56.4928 46.463 56.314C45.3388 55.1969 44.2274 54.0668 43.111 52.942C42.9057 52.7711 42.7414 52.556 42.6302 52.3126C42.5189 52.0692 42.4637 51.8037 42.4685 51.5359Z" fill="#0088FF"/>
<path opacity="0.2" d="M46.4942 45.0465C46.5227 45.2002 46.4632 45.247 46.331 45.2705C45.2295 45.4446 44.1754 45.845 43.2346 46.4466C42.2937 47.0483 41.4863 47.8383 40.8626 48.7675C40.7745 48.895 40.702 48.8976 40.5802 48.8299C39.9067 48.455 39.2332 48.0826 38.5519 47.7233C38.3446 47.6139 38.4483 47.5176 38.526 47.4056C39.8768 45.3975 41.8352 43.88 44.111 43.078C44.7112 42.8776 45.325 42.721 45.9477 42.6093C46.1342 42.5729 46.2274 42.5911 46.2482 42.8228C46.3155 43.578 46.4113 44.3253 46.4942 45.0465Z" fill="#0088FF"/>
<path opacity="0.2" d="M44.8671 61.5527C44.8678 61.5657 44.8678 61.5788 44.8671 61.5918C44.5821 62.3556 44.298 63.1177 44.0148 63.878C43.9526 64.042 43.8335 63.9795 43.7221 63.9405C42.0923 63.3457 40.6302 62.363 39.4608 61.0762C39.0679 60.6489 38.706 60.1938 38.3779 59.7144C38.2588 59.5426 38.2329 59.441 38.4583 59.3316C39.1577 58.9879 39.8519 58.6286 40.5306 58.2641C40.699 58.1755 40.7689 58.251 40.8596 58.376C41.5612 59.3745 42.4686 60.2093 43.52 60.8237C43.8987 61.0305 44.2888 61.2157 44.6883 61.3783C44.7634 61.4147 44.8722 61.4278 44.8671 61.5527Z" fill="#0088FF"/>
<path opacity="0.2" d="M55.9546 60.7405C55.9261 60.7222 55.882 60.6962 55.8406 60.665C55.2033 60.1989 54.5687 59.725 53.9236 59.2693C53.776 59.1625 53.7656 59.0896 53.877 58.9516C54.5268 58.1575 55.0296 57.2527 55.3614 56.2801C55.4209 56.1056 55.5038 56.0744 55.6696 56.1316C56.388 56.3712 57.1082 56.6055 57.8301 56.8347C58.0036 56.8868 58.0347 56.9675 57.9803 57.1367C57.5814 58.3779 56.9771 59.5425 56.1929 60.5816C56.1463 60.6545 56.0996 60.7483 55.9546 60.7405Z" fill="#0088FF"/>
<path opacity="0.2" d="M39.1684 53.0431C38.5312 52.9494 37.8965 52.8635 37.2618 52.7619C36.6816 52.6656 36.6919 52.6604 36.7671 52.0615C36.9277 50.9059 37.2541 49.7797 37.7359 48.7181C37.8214 48.5228 37.8784 48.4577 38.0804 48.6296C38.6529 49.1504 39.2436 49.6399 39.8342 50.1372C39.9404 50.2258 40.0103 50.2909 39.9456 50.4497C39.6381 51.2055 39.4502 52.005 39.3886 52.8192C39.3757 52.9676 39.3446 53.0718 39.1684 53.0431Z" fill="#0088FF"/>
<path opacity="0.2" d="M40.0666 56.936C39.6893 56.0374 39.4652 55.0815 39.4035 54.1082C39.3905 53.9051 39.2895 53.8686 39.1159 53.8712C38.7584 53.8712 38.3984 53.8712 38.0409 53.8712L36.8752 53.9155C36.6783 53.9155 36.6161 54.0327 36.6524 54.241C36.6887 54.4493 36.6861 54.7253 36.712 54.9674C36.8368 55.9979 37.082 57.0099 37.4425 57.9827C37.4865 58.1077 37.5124 58.2821 37.7404 58.1806C38.4709 57.8551 39.2066 57.54 39.9449 57.2276C39.9754 57.2216 40.0041 57.2082 40.0282 57.1885C40.0524 57.1688 40.0713 57.1434 40.0834 57.1145C40.0954 57.0857 40.1002 57.0543 40.0973 57.0231C40.0943 56.992 40.0838 56.962 40.0666 56.936Z" fill="#0088FF"/>
<path opacity="0.2" d="M54.5064 61.9486C54.1593 61.4278 53.8251 60.8784 53.4702 60.3472C53.1153 59.816 53.1179 59.8264 52.5921 60.1831L52.5403 60.2196C50.6956 61.5282 48.4164 62.0633 46.1858 61.7116C45.9397 61.6751 45.8672 61.7507 45.8646 61.985L45.8102 63.0422C45.8102 63.089 45.8102 63.1359 45.8102 63.1828C45.8102 63.227 45.8102 63.2687 45.8102 63.3104C45.8102 63.352 45.8102 63.4093 45.8102 63.4588L45.774 64.1801C45.761 64.4404 45.9113 64.5081 46.1574 64.542C49.2452 64.9742 51.9989 64.1618 54.4753 62.3001C54.6126 62.1881 54.6074 62.1022 54.5064 61.9486Z" fill="#0088FF"/>
<path opacity="0.2" d="M58.4235 53.4186C58.3885 52.3842 58.2142 51.3594 57.9054 50.3721C57.8044 50.0336 57.7629 50.0179 57.5013 50.2601C56.9452 50.7809 56.3666 51.2739 55.7657 51.7391C55.699 51.7796 55.6476 51.8412 55.6195 51.9143C55.5913 51.9873 55.5881 52.0676 55.6102 52.1427C55.7108 52.6195 55.7612 53.1056 55.7605 53.593C55.7652 53.9852 55.7479 54.3772 55.7087 54.7674C55.6905 54.9288 55.7087 55.0616 55.9237 55.0668L58.167 55.1345C58.3406 55.1345 58.4261 55.0642 58.4261 54.8898C58.45 54.3996 58.4492 53.9086 58.4235 53.4186Z" fill="#0088FF"/>
<path opacity="0.2" d="M53.7237 44.526C52.0288 43.2979 50.0113 42.5996 47.9236 42.5184H47.8718C47.6646 42.4871 47.6827 42.6616 47.6827 42.6616L47.6309 44.8957V44.7577C47.6309 44.8046 47.6309 44.8488 47.6309 44.8957C47.5998 45.1561 47.6905 45.2082 47.934 45.2238C49.3412 45.2909 50.7016 45.7527 51.8611 46.557C52.0166 46.6689 52.0735 46.6038 52.1668 46.5075C52.6849 45.9607 53.2211 45.4113 53.7573 44.8723C53.9128 44.7213 53.8817 44.6483 53.7237 44.526Z" fill="#0088FF"/>
</svg>
