<svg width="20" height="20" viewBox="0 0 20 20" fill="none" xmlns="http://www.w3.org/2000/svg">
<path d="M8.43766 2.41309H11.5452C12.6742 2.41309 13.7204 2.69811 14.6837 3.26816C15.616 3.81749 16.3566 4.56374 16.9056 5.50691C17.4753 6.47082 17.7602 7.51505 17.7602 8.63961C17.7602 9.76417 17.4753 10.8084 16.9056 11.7723C16.3566 12.7155 15.616 13.4617 14.6837 14.0111C13.7204 14.5707 12.6742 14.8506 11.5452 14.8506V17.5713C10.2607 17.0634 9.23007 16.6177 8.45319 16.2343C7.26199 15.6538 6.25205 15.0475 5.42338 14.4153C4.42898 13.6587 3.66764 12.8347 3.13937 11.9433C2.52823 10.938 2.22266 9.83413 2.22266 8.63184C2.22266 7.51246 2.50751 6.47082 3.07722 5.50691C3.62621 4.56374 4.36683 3.81749 5.29908 3.26816C6.26241 2.70848 7.3086 2.42863 8.43766 2.42863V2.41309ZM9.99141 13.2959H11.5452C12.3842 13.3063 13.1662 13.099 13.8913 12.674C14.5957 12.2594 15.155 11.6998 15.5694 10.995C15.9941 10.2694 16.2064 9.48432 16.2064 8.63961C16.2064 7.7949 15.9941 7.00978 15.5694 6.28426C15.155 5.57947 14.5957 5.01978 13.8913 4.6052C13.1662 4.18025 12.3842 3.96777 11.5452 3.96777H8.43766C7.59863 3.96777 6.81658 4.18025 6.09149 4.6052C5.38713 5.01978 4.82778 5.57947 4.41344 6.28426C3.98875 7.00978 3.77641 7.7923 3.77641 8.63184C3.77641 9.56465 3.99393 10.4042 4.42898 11.1504C4.86403 11.8967 5.5425 12.6067 6.46439 13.2804C7.34485 13.9126 8.52052 14.5604 9.99141 15.2237V13.2959Z" fill="#4CAF50"/>
</svg>
