<svg width="117" height="151" viewBox="0 0 117 151" fill="none" xmlns="http://www.w3.org/2000/svg">
<path d="M39.0923 37.057C39.0962 36.1437 39.1041 35.2344 39.108 34.3251L39.155 34.2702L39.1119 34.2153C39.2099 26.4428 45.0853 20.293 51.3409 18.8467C52.1092 18.6703 52.8931 18.5724 53.6691 18.4391C54.8293 18.443 55.9934 18.443 57.1576 18.4469C63.7699 19.1681 69.6688 24.0205 71.1778 31.1698C71.3033 31.7578 71.3542 32.3614 71.4365 32.9532C71.4561 35.936 71.4757 38.9188 71.4953 41.9055C71.3699 42.4738 70.9466 42.8305 70.5625 43.2068C66.1334 47.581 61.7003 51.9553 57.2634 56.3177C56.8871 56.6901 56.5265 57.0664 55.9699 57.2584C55.1272 57.5524 54.4452 57.4466 53.8142 56.8273C52.3679 55.4084 50.9137 53.9974 49.4517 52.5941C48.2719 51.4614 47.0098 50.4384 45.3793 50.0112C43.9839 49.6466 42.5611 49.6074 41.1501 49.8348C39.8605 50.0425 39.5705 49.9132 39.1354 48.6236C39.1942 46.7971 39.2373 44.9745 39.0884 43.148C39.0884 42.8031 39.0923 42.4542 39.0923 42.1093C39.2373 40.4278 39.2177 38.7424 39.0923 37.057Z" fill="white"/>
<path d="M56.9498 82.4847C65.518 81.4657 71.4169 76.9738 74.5094 68.8995C75.164 67.1945 75.3874 65.3759 75.5324 63.5572C75.6069 62.6126 75.7323 61.6993 76.332 60.8997C77.4374 59.4181 79.2756 58.8302 80.9571 59.4691C82.5524 60.0727 83.5675 61.7307 83.3559 63.5611C82.862 67.7942 81.9135 71.9019 79.7499 75.6373C75.4619 83.0374 69.2024 87.7683 60.8067 89.587C59.0899 89.9593 59.0311 90.0025 59.0389 91.7898C59.0429 92.9852 59.035 94.1807 59.0468 95.3762C59.0585 96.6069 59.427 96.9675 60.6851 96.9714C62.931 96.9793 65.177 96.9714 67.4229 96.9832C69.363 96.995 71.0445 98.2767 71.2013 99.8484C71.4483 102.282 70.4409 103.842 68.2538 104.419L68.2225 104.423C66.7879 104.43 65.3533 104.442 63.9188 104.45C62.8174 104.356 61.7121 104.344 60.6107 104.462C57.7298 104.462 54.8489 104.462 51.968 104.462C50.8627 104.348 49.7574 104.352 48.6521 104.458C47.8015 104.462 46.951 104.462 46.1005 104.466C46.0064 104.466 45.9123 104.466 45.8143 104.466C44.8736 104.462 43.929 104.477 42.9883 104.446C40.8914 104.379 39.3745 102.753 39.3862 100.613C39.398 98.551 40.9306 97.0145 43.0432 96.991C45.3989 96.9636 47.7506 96.9832 50.1062 96.9675C51.2272 96.9597 51.6114 96.5834 51.6231 95.4859C51.6388 94.0357 51.5839 92.5854 51.6506 91.1391C51.6937 90.1828 51.188 89.8261 50.3963 89.7006C47.8564 89.3048 45.4733 88.4307 43.2 87.2823C36.5955 83.9467 31.9234 78.8317 29.1797 71.945C28.0587 69.1347 27.4512 66.2225 27.2709 63.224C27.1415 61.0291 28.8309 59.2339 30.9396 59.2065C33.6715 59.1712 35.0277 61.131 35.0708 63.0202C35.208 69.1034 37.7949 73.9832 42.3847 77.8361C45.638 80.5681 49.4046 82.1712 53.6848 82.4534C54.7666 82.7042 55.8562 82.6768 56.9498 82.4847Z" fill="white"/>
<path d="M42.616 52.6451C44.5287 52.3786 45.979 53.2409 47.2763 54.5147C49.3968 56.596 51.5369 58.6577 53.6613 60.7273C55.0567 62.0873 55.7073 62.0952 57.1184 60.6959C64.0913 53.7857 71.072 46.8834 78.0214 39.9497C79.503 38.472 81.1609 37.5548 83.2971 37.5783C85.8252 37.6058 87.6517 38.8051 88.8825 40.9217C90.1211 43.05 89.9525 45.2175 88.7571 47.3224C88.1417 48.4042 87.2284 49.2508 86.3583 50.117C77.9312 58.4892 69.5081 66.8692 61.0614 75.2257C57.5182 78.7298 53.2693 78.7847 49.7025 75.3511C45.7399 71.5296 41.8791 67.6022 37.9086 63.7884C33.9929 60.0257 36.4191 53.9817 40.6836 52.7862C41.3382 52.5981 41.9771 52.6686 42.616 52.6451Z" fill="#15FE8D"/>
<path d="M71.4914 41.9056C71.4718 38.9228 71.4522 35.9361 71.4326 32.9533C71.7658 34.819 71.5698 36.6965 71.5776 38.57C71.5894 39.6832 71.7305 40.8003 71.4914 41.9056Z" fill="white"/>
<path d="M39.0844 43.152C39.2372 44.9746 39.1902 46.8011 39.1314 48.6276C38.9472 46.8011 38.9942 44.9785 39.0844 43.152Z" fill="white"/>
<path d="M39.0922 37.057C39.2176 38.7424 39.2372 40.4278 39.0883 42.1132C38.9903 40.4278 38.9707 38.7424 39.0922 37.057Z" fill="white"/>
<path d="M57.1536 18.4469C55.9895 18.443 54.8293 18.443 53.6652 18.4391C54.8332 18.1843 55.9934 18.1725 57.1536 18.4469Z" fill="white"/>
<path d="M56.9497 82.4847C55.8561 82.6728 54.7665 82.7041 53.6769 82.4572C54.7704 82.469 55.8601 82.4768 56.9497 82.4847Z" fill="white"/>
<path d="M48.6521 104.454C49.7574 104.348 50.8627 104.344 51.968 104.458C50.8588 104.587 49.7535 104.587 48.6521 104.454Z" fill="white"/>
<path d="M60.6067 104.462C61.7081 104.344 62.8134 104.356 63.9148 104.45C62.8095 104.591 61.7081 104.583 60.6067 104.462Z" fill="white"/>
<path d="M45.8143 104.462C45.9084 104.462 46.0064 104.462 46.1005 104.462C46.0025 104.571 45.9084 104.571 45.8143 104.462Z" fill="white"/>
<path d="M39.1119 34.2153L39.155 34.2702L39.1079 34.3251L39.0609 34.2663L39.1119 34.2153Z" fill="white"/>
<path d="M68.2185 104.422L68.2499 104.415L68.2342 104.469L68.2185 104.422Z" fill="white"/>
<path d="M65.659 13.7488C66.0878 13.446 66.5988 13.285 67.122 13.2868V13.2938C67.6161 13.2925 68.0996 13.4365 68.5125 13.7078C68.9254 13.9791 69.2494 14.3658 69.4443 14.8198L70.517 18.0818C70.7646 18.8208 71.1809 19.4921 71.7327 20.0425C72.2846 20.5928 72.957 21.0072 73.6968 21.2528L76.8083 22.2643C77.3103 22.4395 77.7442 22.7689 78.048 23.2053C78.3518 23.6418 78.5099 24.1631 78.4998 24.6948C78.4897 25.2264 78.3119 25.7413 77.9918 26.166C77.6717 26.5906 77.2256 26.9033 76.7173 27.0593L73.646 28.0568C72.9033 28.3044 72.2284 28.7216 71.675 29.2753C71.1215 29.8291 70.7047 30.5042 70.4575 31.247L69.446 34.3568C69.2696 34.8521 68.9433 35.2801 68.5124 35.5815C68.0816 35.8828 67.5676 36.0424 67.0418 36.0382C66.5161 36.034 66.0047 35.8661 65.5787 35.5578C65.1528 35.2496 64.8334 34.8164 64.665 34.3183L63.6448 31.1823C63.3984 30.461 62.9916 29.805 62.4551 29.2636C61.9186 28.7223 61.2663 28.3096 60.5473 28.0568L57.4375 27.0593C56.9384 26.8866 56.5059 26.5618 56.2009 26.1307C55.8959 25.6995 55.7336 25.1836 55.7369 24.6555C55.7401 24.1274 55.9088 23.6135 56.2192 23.1862C56.5296 22.7589 56.966 22.4395 57.4673 22.273L60.5368 21.2773C61.2794 21.028 61.954 20.6096 62.5073 20.055C63.0606 19.5005 63.4776 18.825 63.7253 18.0818L64.7368 14.9755C64.91 14.4803 65.232 14.0515 65.659 13.7488ZM79.0763 4.91829C78.7423 5.15618 78.4914 5.49281 78.3588 5.88079L77.7848 7.64129C77.6735 7.97639 77.4857 8.28098 77.2363 8.53096C76.987 8.78094 76.6828 8.96944 76.348 9.08154L74.6138 9.64679C74.217 9.78119 73.8721 10.036 73.6271 10.3757C73.3821 10.7155 73.2493 11.1232 73.247 11.542C73.2465 11.9585 73.3763 12.3646 73.6183 12.7036C73.8603 13.0425 74.2022 13.2972 74.5963 13.432L76.3568 14.0025C76.6842 14.1189 76.9807 14.3088 77.2233 14.5575C77.466 14.8063 77.6485 15.1073 77.7568 15.4375L78.3238 17.1718C78.4571 17.5642 78.7091 17.9055 79.0449 18.1485C79.3807 18.3915 79.7837 18.5241 80.1981 18.5282C80.6126 18.5322 81.018 18.4074 81.3585 18.171C81.6989 17.9346 81.9575 17.5983 82.0985 17.2085L82.6743 15.434C82.787 15.1014 82.9752 14.7994 83.2242 14.5516C83.4731 14.3039 83.7761 14.1171 84.1093 14.006L85.8453 13.4408C86.2454 13.3156 86.5961 13.0677 86.8474 12.7321C87.0988 12.3965 87.2381 11.9903 87.2457 11.571C87.2532 11.1518 87.1286 10.7408 86.8895 10.3964C86.6504 10.052 86.3089 9.79153 85.9135 9.65204L84.139 9.07629C83.8053 8.96367 83.5024 8.77513 83.254 8.52551C83.0056 8.27588 82.8185 7.97201 82.7075 7.6378L82.144 5.90705C82.0075 5.50455 81.7485 5.15455 81.4003 4.90955C81.0605 4.66804 80.6537 4.53901 80.2368 4.54058C79.82 4.54214 79.4142 4.67423 79.0763 4.91829Z" fill="white" stroke="#6366F1" stroke-width="2"/>
<path d="M11.3144 133.12C11.2462 132.432 10.9536 131.898 10.4365 131.517C9.9195 131.137 9.2178 130.946 8.33144 130.946C7.72916 130.946 7.22064 131.032 6.80587 131.202C6.39109 131.367 6.07291 131.597 5.85132 131.892C5.63541 132.188 5.52746 132.523 5.52746 132.898C5.51609 133.211 5.58144 133.483 5.72348 133.716C5.87121 133.949 6.07291 134.151 6.32859 134.321C6.58428 134.486 6.87973 134.631 7.21496 134.756C7.55019 134.875 7.90814 134.978 8.28882 135.063L9.857 135.438C10.6184 135.608 11.3172 135.836 11.9536 136.12C12.59 136.404 13.1411 136.753 13.607 137.168C14.0729 137.583 14.4337 138.071 14.6894 138.634C14.9508 139.196 15.0843 139.841 15.09 140.569C15.0843 141.637 14.8115 142.563 14.2718 143.347C13.7377 144.125 12.965 144.73 11.9536 145.162C10.9479 145.588 9.73484 145.801 8.31439 145.801C6.9053 145.801 5.67803 145.586 4.63257 145.154C3.5928 144.722 2.7803 144.083 2.19507 143.236C1.61553 142.384 1.31155 141.33 1.28314 140.074H4.85416C4.89394 140.659 5.06155 141.148 5.357 141.54C5.65814 141.926 6.05871 142.219 6.55871 142.418C7.06439 142.611 7.63541 142.708 8.27178 142.708C8.89678 142.708 9.43939 142.617 9.89962 142.435C10.3655 142.253 10.7263 142 10.982 141.676C11.2377 141.353 11.3655 140.98 11.3655 140.56C11.3655 140.168 11.249 139.838 11.0161 139.571C10.7888 139.304 10.4536 139.077 10.0104 138.89C9.57291 138.702 9.03598 138.532 8.39962 138.378L6.49905 137.901C5.02746 137.543 3.86553 136.983 3.01325 136.222C2.16098 135.461 1.73769 134.435 1.74337 133.145C1.73769 132.088 2.01894 131.165 2.58712 130.375C3.16098 129.586 3.94791 128.969 4.94791 128.526C5.94791 128.083 7.08428 127.861 8.357 127.861C9.65246 127.861 10.7831 128.083 11.749 128.526C12.7206 128.969 13.4763 129.586 14.0161 130.375C14.5559 131.165 14.8343 132.08 14.8513 133.12H11.3144ZM21.357 145.801C20.5217 145.801 19.7774 145.657 19.124 145.367C18.4706 145.071 17.9536 144.637 17.5729 144.063C17.1979 143.483 17.0104 142.762 17.0104 141.898C17.0104 141.171 17.1439 140.56 17.411 140.066C17.678 139.571 18.0416 139.174 18.5019 138.873C18.9621 138.571 19.4848 138.344 20.07 138.191C20.661 138.037 21.2803 137.929 21.928 137.867C22.6894 137.787 23.303 137.713 23.7689 137.645C24.2348 137.571 24.5729 137.463 24.7831 137.321C24.9933 137.179 25.0985 136.969 25.0985 136.691V136.64C25.0985 136.1 24.928 135.682 24.5871 135.387C24.2519 135.091 23.7746 134.944 23.1553 134.944C22.5019 134.944 21.982 135.088 21.5956 135.378C21.2092 135.662 20.9536 136.02 20.8286 136.452L17.4706 136.179C17.6411 135.384 17.9763 134.696 18.4763 134.117C18.9763 133.532 19.6212 133.083 20.411 132.77C21.2064 132.452 22.1269 132.293 23.1723 132.293C23.8996 132.293 24.5956 132.378 25.2604 132.549C25.9308 132.719 26.5246 132.983 27.0416 133.341C27.5644 133.699 27.9763 134.159 28.2774 134.722C28.5786 135.279 28.7291 135.946 28.7291 136.725V145.554H25.286V143.739H25.1837C24.9735 144.148 24.6922 144.509 24.3399 144.821C23.9877 145.128 23.5644 145.37 23.07 145.546C22.5757 145.716 22.0047 145.801 21.357 145.801ZM22.3967 143.296C22.9308 143.296 23.4024 143.191 23.8115 142.98C24.2206 142.765 24.5416 142.475 24.7746 142.111C25.0075 141.748 25.124 141.336 25.124 140.875V139.486C25.0104 139.56 24.8541 139.628 24.6553 139.691C24.4621 139.748 24.2433 139.801 23.999 139.853C23.7547 139.898 23.5104 139.941 23.2661 139.98C23.0217 140.015 22.8002 140.046 22.6013 140.074C22.1752 140.137 21.803 140.236 21.4848 140.373C21.1666 140.509 20.9195 140.694 20.7433 140.926C20.5672 141.154 20.4791 141.438 20.4791 141.779C20.4791 142.273 20.6581 142.651 21.0161 142.912C21.3797 143.168 21.8399 143.296 22.3967 143.296ZM33.4386 150.463C32.9784 150.463 32.5466 150.426 32.1432 150.353C31.7454 150.284 31.4159 150.196 31.1545 150.088L31.9727 147.378C32.3988 147.509 32.7824 147.58 33.1233 147.591C33.4699 147.603 33.7682 147.523 34.0182 147.353C34.2738 147.182 34.4812 146.892 34.6403 146.483L34.8534 145.929L30.1574 132.463H33.9756L36.6858 142.077H36.8221L39.5579 132.463H43.4017L38.3136 146.969C38.0693 147.674 37.7369 148.287 37.3165 148.81C36.9017 149.338 36.3761 149.745 35.7398 150.029C35.1034 150.319 34.3363 150.463 33.4386 150.463ZM50.4577 131.142V128.1H64.793V131.142H59.4492V145.554H55.8015V131.142H50.4577ZM71.2219 145.81C69.8981 145.81 68.7532 145.529 67.7873 144.966C66.827 144.398 66.0856 143.608 65.5628 142.597C65.0401 141.58 64.7787 140.401 64.7787 139.06C64.7787 137.708 65.0401 136.526 65.5628 135.515C66.0856 134.498 66.827 133.708 67.7873 133.145C68.7532 132.577 69.8981 132.293 71.2219 132.293C72.5458 132.293 73.6878 132.577 74.6481 133.145C75.614 133.708 76.3583 134.498 76.881 135.515C77.4037 136.526 77.6651 137.708 77.6651 139.06C77.6651 140.401 77.4037 141.58 76.881 142.597C76.3583 143.608 75.614 144.398 74.6481 144.966C73.6878 145.529 72.5458 145.81 71.2219 145.81ZM71.239 142.998C71.8412 142.998 72.3441 142.827 72.7475 142.486C73.1509 142.14 73.4549 141.668 73.6594 141.071C73.8696 140.475 73.9748 139.796 73.9748 139.034C73.9748 138.273 73.8696 137.594 73.6594 136.998C73.4549 136.401 73.1509 135.929 72.7475 135.583C72.3441 135.236 71.8412 135.063 71.239 135.063C70.631 135.063 70.1196 135.236 69.7049 135.583C69.2958 135.929 68.9861 136.401 68.7759 136.998C68.5713 137.594 68.4691 138.273 68.4691 139.034C68.4691 139.796 68.5713 140.475 68.7759 141.071C68.9861 141.668 69.2958 142.14 69.7049 142.486C70.1196 142.827 70.631 142.998 71.239 142.998ZM92.0763 145.554H85.8888V128.1H92.1274C93.8831 128.1 95.3944 128.449 96.6615 129.148C97.9285 129.841 98.903 130.838 99.5848 132.14C100.272 133.441 100.616 134.998 100.616 136.81C100.616 138.628 100.272 140.191 99.5848 141.498C98.903 142.804 97.9229 143.807 96.6444 144.506C95.3717 145.205 93.849 145.554 92.0763 145.554ZM89.5791 142.392H91.9229C93.0138 142.392 93.9314 142.199 94.6757 141.813C95.4257 141.421 95.9882 140.816 96.3632 139.998C96.7439 139.174 96.9342 138.111 96.9342 136.81C96.9342 135.52 96.7439 134.466 96.3632 133.648C95.9882 132.83 95.4285 132.228 94.6842 131.841C93.9399 131.455 93.0223 131.262 91.9314 131.262H89.5791V142.392ZM109.316 145.81C107.992 145.81 106.848 145.529 105.882 144.966C104.921 144.398 104.18 143.608 103.657 142.597C103.134 141.58 102.873 140.401 102.873 139.06C102.873 137.708 103.134 136.526 103.657 135.515C104.18 134.498 104.921 133.708 105.882 133.145C106.848 132.577 107.992 132.293 109.316 132.293C110.64 132.293 111.782 132.577 112.742 133.145C113.708 133.708 114.453 134.498 114.975 135.515C115.498 136.526 115.759 137.708 115.759 139.06C115.759 140.401 115.498 141.58 114.975 142.597C114.453 143.608 113.708 144.398 112.742 144.966C111.782 145.529 110.64 145.81 109.316 145.81ZM109.333 142.998C109.936 142.998 110.438 142.827 110.842 142.486C111.245 142.14 111.549 141.668 111.754 141.071C111.964 140.475 112.069 139.796 112.069 139.034C112.069 138.273 111.964 137.594 111.754 136.998C111.549 136.401 111.245 135.929 110.842 135.583C110.438 135.236 109.936 135.063 109.333 135.063C108.725 135.063 108.214 135.236 107.799 135.583C107.39 135.929 107.08 136.401 106.87 136.998C106.666 137.594 106.563 138.273 106.563 139.034C106.563 139.796 106.666 140.475 106.87 141.071C107.08 141.668 107.39 142.14 107.799 142.486C108.214 142.827 108.725 142.998 109.333 142.998Z" fill="white"/>
</svg>
