<svg width="44" height="46" viewBox="0 0 44 46" fill="none" xmlns="http://www.w3.org/2000/svg">
<path d="M41.7916 31.3334L35.5416 37.5834M35.5416 37.5834L29.2916 43.8334M35.5416 37.5834L41.7916 43.8334M35.5416 37.5834L29.2916 31.3334M11.5833 31.3334H19.9166M11.5833 20.9167H28.25M10.5416 5.29169C7.29995 5.3896 5.3687 5.75002 4.0312 7.08752C2.19995 8.92085 2.19995 11.8688 2.19995 17.7667V31.3209C2.19995 37.2209 2.19995 40.1688 4.0312 42.0021C5.86037 43.8334 8.80828 43.8334 14.7 43.8334H22M29.275 5.29169C32.5166 5.3896 34.45 5.75002 35.7854 7.08752C37.6187 8.92085 37.6187 11.8688 37.6187 17.7667V24.0417" stroke="#333333" stroke-width="3" stroke-linecap="round" stroke-linejoin="round"/>
<path d="M10.5333 5.81252C10.5333 3.80002 12.1667 2.16669 14.1792 2.16669H25.6375C26.6044 2.16669 27.5318 2.5508 28.2155 3.23453C28.8992 3.91825 29.2833 4.84559 29.2833 5.81252C29.2833 6.77946 28.8992 7.70679 28.2155 8.39051C27.5318 9.07424 26.6044 9.45835 25.6375 9.45835H14.1792C13.2122 9.45835 12.2849 9.07424 11.6012 8.39051C10.9174 7.70679 10.5333 6.77946 10.5333 5.81252Z" stroke="#333333" stroke-width="3" stroke-linecap="round" stroke-linejoin="round"/>
</svg>
