<svg width="30" height="30" viewBox="0 0 30 30" fill="none" xmlns="http://www.w3.org/2000/svg">
<path d="M27.5 7.13762V19.1126C27.5 22.5626 24.7 25.3626 21.25 25.3626H8.75C8.175 25.3626 7.625 25.2876 7.0875 25.1376C6.3125 24.9251 6.0625 23.9376 6.6375 23.3626L19.925 10.0751C20.2 9.80012 20.6125 9.73762 21 9.81262C21.4 9.88762 21.8375 9.77512 22.15 9.47512L25.3625 6.25012C26.5375 5.07512 27.5 5.46262 27.5 7.13762Z" fill="#FACC15"/>
<path opacity="0.4" d="M18.3 9.1999L5.2125 22.2874C4.6125 22.8874 3.6125 22.7374 3.2125 21.9874C2.75 21.1374 2.5 20.1499 2.5 19.1124V7.1374C2.5 5.4624 3.4625 5.0749 4.6375 6.2499L7.8625 9.4874C8.35 9.9624 9.15 9.9624 9.6375 9.4874L14.1125 4.9999C14.6 4.5124 15.4 4.5124 15.8875 4.9999L18.3125 7.4249C18.7875 7.9124 18.7875 8.7124 18.3 9.1999Z" fill="#FACC15"/>
</svg>
