<svg width="77" height="96" viewBox="0 0 77 96" fill="none" xmlns="http://www.w3.org/2000/svg">
<path d="M25.5981 20.9909C25.6007 20.3929 25.6058 19.7975 25.6084 19.202L25.6392 19.1661L25.6109 19.1302C25.6751 14.0407 29.5223 10.0138 33.6185 9.06672C34.1216 8.95123 34.6349 8.88707 35.1431 8.7998C35.9028 8.80237 36.665 8.80237 37.4273 8.80493C41.7571 9.27718 45.6197 12.4546 46.6078 17.1359C46.69 17.5209 46.7233 17.9162 46.7772 18.3037C46.7901 20.2569 46.8029 22.21 46.8157 24.1657C46.7336 24.5379 46.4564 24.7714 46.2049 25.0178C43.3047 27.8821 40.4019 30.7463 37.4966 33.6029C37.2502 33.8467 37.0141 34.0931 36.6496 34.2189C36.0978 34.4114 35.6512 34.3421 35.238 33.9366C34.291 33.0075 33.3388 32.0835 32.3815 31.1647C31.6089 30.423 30.7825 29.7531 29.7148 29.4733C28.8011 29.2347 27.8695 29.209 26.9455 29.3578C26.1011 29.4939 25.9112 29.4092 25.6263 28.5648C25.6648 27.3688 25.693 26.1753 25.5955 24.9793C25.5955 24.7535 25.5981 24.525 25.5981 24.2992C25.6931 23.1981 25.6802 22.0945 25.5981 20.9909Z" fill="#6366F1"/>
<path d="M37.2912 50.7372C42.9017 50.0699 46.7644 47.1286 48.7894 41.8415C49.218 40.7251 49.3643 39.5342 49.4592 38.3433C49.508 37.7248 49.5901 37.1268 49.9828 36.6032C50.7066 35.633 51.9103 35.2481 53.0113 35.6664C54.0559 36.0617 54.7207 37.1473 54.5821 38.3459C54.2587 41.1178 53.6376 43.8075 52.2208 46.2534C49.413 51.0991 45.3143 54.1969 39.8167 55.3878C38.6926 55.6316 38.6541 55.6598 38.6592 56.8302C38.6618 57.6129 38.6566 58.3957 38.6643 59.1785C38.672 59.9844 38.9133 60.2206 39.7372 60.2231C41.2078 60.2283 42.6784 60.2231 44.149 60.2308C45.4195 60.2385 46.5205 61.0778 46.6232 62.107C46.7849 63.7008 46.1253 64.7223 44.6932 65.0996L44.6726 65.1021C43.7333 65.1073 42.7939 65.115 41.8546 65.1201C41.1334 65.0585 40.4096 65.0508 39.6884 65.1278C37.802 65.1278 35.9156 65.1278 34.0292 65.1278C33.3054 65.0534 32.5816 65.0559 31.8579 65.1252C31.3009 65.1278 30.744 65.1278 30.187 65.1304C30.1254 65.1304 30.0638 65.1304 29.9997 65.1304C29.3837 65.1278 28.7652 65.1381 28.1492 65.1175C26.7761 65.0739 25.7828 64.0088 25.7905 62.6074C25.7982 61.2574 26.8018 60.2514 28.1851 60.236C29.7276 60.218 31.2675 60.2308 32.81 60.2206C33.5441 60.2154 33.7956 59.969 33.8033 59.2504C33.8136 58.3008 33.7776 57.3512 33.8213 56.4041C33.8495 55.7779 33.5184 55.5443 33 55.4622C31.3368 55.203 29.7764 54.6306 28.2878 53.8786C23.9632 51.6945 20.9038 48.3451 19.1073 43.8357C18.3732 41.9955 17.9754 40.0886 17.8573 38.1252C17.7726 36.6879 18.8788 35.5124 20.2596 35.4944C22.0485 35.4713 22.9365 36.7546 22.9648 37.9917C23.0546 41.975 24.7485 45.1703 27.754 47.6932C29.8842 49.4821 32.3506 50.5318 35.1533 50.7166C35.8617 50.8809 36.5752 50.8629 37.2912 50.7372Z" fill="#6366F1"/>
<path d="M27.9054 31.1981C29.1579 31.0236 30.1075 31.5882 30.957 32.4224C32.3455 33.7852 33.7469 35.1352 35.1379 36.4903C36.0516 37.3809 36.4777 37.3861 37.4016 36.4698C41.9675 31.945 46.5385 27.4253 51.089 22.8851C52.0592 21.9175 53.1448 21.3169 54.5436 21.3323C56.199 21.3503 57.395 22.1356 58.2009 23.5216C59.012 24.9152 58.9016 26.3345 58.1188 27.7128C57.7159 28.4211 57.1178 28.9755 56.5481 29.5427C51.03 35.0248 45.5145 40.5121 39.9836 45.984C37.6634 48.2785 34.8813 48.3144 32.5457 46.0661C29.9509 43.5638 27.4229 40.9921 24.823 38.4948C22.259 36.0309 23.8477 32.0733 26.6401 31.2905C27.0687 31.1673 27.4871 31.2135 27.9054 31.1981Z" fill="#97FFAA"/>
<path d="M46.8132 24.1657C46.8003 22.2126 46.7875 20.2569 46.7747 18.3037C46.9928 19.5254 46.8645 20.7548 46.8696 21.9816C46.8773 22.7105 46.9697 23.4419 46.8132 24.1657Z" fill="#6366F1"/>
<path d="M25.5929 24.9824C25.693 26.1759 25.6622 27.3719 25.6237 28.5679C25.5031 27.3719 25.5339 26.1784 25.5929 24.9824Z" fill="#6366F1"/>
<path d="M25.598 20.9902C25.6801 22.0938 25.6929 23.1975 25.5954 24.3011C25.5312 23.1975 25.5184 22.0938 25.598 20.9902Z" fill="#6366F1"/>
<path d="M37.4247 8.80535C36.6625 8.80278 35.9028 8.80279 35.1405 8.80022C35.9053 8.63339 36.665 8.62569 37.4247 8.80535Z" fill="#6366F1"/>
<path d="M37.2913 50.7367C36.5752 50.8599 35.8617 50.8804 35.1482 50.7188C35.8643 50.7264 36.5778 50.7316 37.2913 50.7367Z" fill="#6366F1"/>
<path d="M31.8578 65.1219C32.5816 65.0527 33.3054 65.0501 34.0291 65.1245C33.3028 65.2092 32.579 65.2092 31.8578 65.1219Z" fill="#6366F1"/>
<path d="M39.6858 65.1281C40.407 65.0511 41.1308 65.0588 41.852 65.1204C41.1282 65.2128 40.407 65.2077 39.6858 65.1281Z" fill="#6366F1"/>
<path d="M29.9996 65.1279C30.0612 65.1279 30.1253 65.1279 30.1869 65.1279C30.1228 65.1998 30.0612 65.1998 29.9996 65.1279Z" fill="#6366F1"/>
<path d="M25.6108 19.1309L25.639 19.1668L25.6083 19.2027L25.5775 19.1642L25.6108 19.1309Z" fill="#6366F1"/>
<path d="M44.67 65.1028L44.6906 65.0977L44.6803 65.1336L44.67 65.1028Z" fill="#6366F1"/>
<path d="M45.338 3.55176C45.9004 5.4309 46.914 7.15434 48.3067 8.55859C49.7049 9.96833 51.4229 10.9943 53.2969 11.5605C51.4229 12.1268 49.7049 13.1528 48.3067 14.5625C46.9142 15.9665 45.9004 17.6896 45.338 19.5684C44.7755 17.6896 43.7617 15.9665 42.3692 14.5625C40.9708 13.1525 39.2524 12.1268 37.378 11.5605C39.2524 10.9943 40.9708 9.96856 42.3692 8.55859C43.7619 7.15434 44.7755 5.4309 45.338 3.55176Z" fill="#6366F1" stroke="white" stroke-width="1.17653"/>
<path d="M7.40877 84.1429C7.36413 83.6927 7.17252 83.343 6.83396 83.0937C6.4954 82.8444 6.03592 82.7198 5.45552 82.7198C5.06115 82.7198 4.72817 82.7756 4.45657 82.8872C4.18498 82.9951 3.97663 83.1458 3.83153 83.3393C3.69015 83.5327 3.61946 83.7522 3.61946 83.9978C3.61202 84.2024 3.65481 84.381 3.74782 84.5335C3.84455 84.6861 3.97663 84.8182 4.14405 84.9298C4.31147 85.0377 4.50494 85.1325 4.72445 85.2144C4.94396 85.2925 5.17835 85.3595 5.42762 85.4153L6.45447 85.6608C6.95302 85.7725 7.41063 85.9213 7.82733 86.1073C8.24402 86.2933 8.60491 86.5221 8.90999 86.7937C9.21507 87.0653 9.45132 87.3853 9.61874 87.7536C9.78988 88.1219 9.87731 88.5442 9.88103 89.0204C9.87731 89.7199 9.69873 90.3263 9.34528 90.8397C8.99556 91.3495 8.48957 91.7457 7.82733 92.0284C7.1688 92.3075 6.37448 92.447 5.44436 92.447C4.52168 92.447 3.71806 92.3056 3.03349 92.0229C2.35264 91.7401 1.82061 91.3216 1.4374 90.7672C1.05791 90.2091 0.858868 89.519 0.840266 88.6968H3.17859C3.20463 89.08 3.31439 89.3999 3.50785 89.6566C3.70504 89.9096 3.96733 90.1012 4.29473 90.2315C4.62585 90.3579 4.99976 90.4212 5.41646 90.4212C5.82571 90.4212 6.18102 90.3617 6.48237 90.2426C6.78745 90.1236 7.0237 89.958 7.19113 89.7459C7.35855 89.5339 7.44226 89.2902 7.44226 89.0149C7.44226 88.7581 7.36599 88.5424 7.21345 88.3675C7.06463 88.1926 6.84512 88.0438 6.55492 87.921C6.26845 87.7983 5.91686 87.6866 5.50017 87.5862L4.25567 87.2737C3.29206 87.0393 2.53122 86.6728 1.97315 86.1743C1.41508 85.6757 1.1379 85.0042 1.14162 84.1596C1.1379 83.4676 1.32207 82.863 1.69412 82.3459C2.06988 81.8287 2.58517 81.4251 3.23998 81.1349C3.89478 80.8447 4.63888 80.6996 5.47226 80.6996C6.32053 80.6996 7.06091 80.8447 7.69339 81.1349C8.32959 81.4251 8.82442 81.8287 9.17786 82.3459C9.53131 82.863 9.71361 83.462 9.72477 84.1429H7.40877ZM13.9847 92.447C13.4378 92.447 12.9504 92.3521 12.5226 92.1624C12.0947 91.9689 11.7561 91.6843 11.5069 91.3085C11.2613 90.929 11.1385 90.4565 11.1385 89.891C11.1385 89.4148 11.226 89.0149 11.4008 88.6912C11.5757 88.3675 11.8138 88.1071 12.1152 87.9099C12.4165 87.7127 12.7588 87.5639 13.142 87.4634C13.5289 87.363 13.9345 87.2923 14.3586 87.2513C14.8572 87.1993 15.259 87.1509 15.564 87.1062C15.8691 87.0579 16.0905 86.9872 16.2282 86.8942C16.3658 86.8012 16.4346 86.6635 16.4346 86.4812V86.4477C16.4346 86.0943 16.323 85.8208 16.0998 85.6274C15.8803 85.4339 15.5678 85.3372 15.1622 85.3372C14.7344 85.3372 14.394 85.432 14.141 85.6218C13.888 85.8078 13.7206 86.0422 13.6387 86.3249L11.4399 86.1464C11.5515 85.6255 11.771 85.1753 12.0984 84.7958C12.4258 84.4126 12.8481 84.1187 13.3652 83.9141C13.8861 83.7057 14.4888 83.6016 15.1734 83.6016C15.6496 83.6016 16.1054 83.6574 16.5407 83.769C16.9797 83.8806 17.3685 84.0536 17.707 84.288C18.0493 84.5224 18.3191 84.8237 18.5162 85.1921C18.7134 85.5567 18.812 85.9938 18.812 86.5035V92.2852H16.5574V91.0965H16.4904C16.3528 91.3643 16.1686 91.6006 15.938 91.8052C15.7073 92.0061 15.4301 92.1642 15.1064 92.2796C14.7827 92.3912 14.4088 92.447 13.9847 92.447ZM14.6656 90.8063C15.0153 90.8063 15.3241 90.7374 15.592 90.5998C15.8598 90.4584 16.07 90.2687 16.2226 90.0305C16.3751 89.7924 16.4514 89.5227 16.4514 89.2213V88.3117C16.377 88.36 16.2747 88.4047 16.1444 88.4456C16.0179 88.4828 15.8747 88.5182 15.7147 88.5517C15.5547 88.5814 15.3948 88.6093 15.2348 88.6354C15.0748 88.6577 14.9297 88.6782 14.7995 88.6968C14.5205 88.7377 14.2768 88.8028 14.0684 88.8921C13.8601 88.9814 13.6982 89.1023 13.5829 89.2548C13.4676 89.4036 13.4099 89.5897 13.4099 89.8129C13.4099 90.1366 13.5271 90.384 13.7615 90.5551C13.9996 90.7226 14.3009 90.8063 14.6656 90.8063ZM21.8958 95.4997C21.5945 95.4997 21.3117 95.4755 21.0476 95.4271C20.7871 95.3825 20.5713 95.3248 20.4002 95.2541L20.9359 93.4794C21.215 93.565 21.4661 93.6115 21.6893 93.6189C21.9163 93.6264 22.1116 93.5743 22.2753 93.4627C22.4427 93.3511 22.5785 93.1613 22.6827 92.8935L22.8222 92.5307L19.7472 83.7132H22.2474L24.0221 90.0082H24.1114L25.9028 83.7132H28.4197L25.088 93.2116C24.928 93.6729 24.7104 94.0747 24.435 94.417C24.1635 94.763 23.8193 95.029 23.4026 95.215C22.9859 95.4048 22.4837 95.4997 21.8958 95.4997ZM33.04 82.8482V80.8558H42.4268V82.8482H38.9277V92.2852H36.5391V82.8482H33.04ZM46.6365 92.4526C45.7696 92.4526 45.0199 92.2684 44.3875 91.9001C43.7587 91.528 43.2732 91.0109 42.9309 90.3486C42.5886 89.6827 42.4175 88.9107 42.4175 88.0326C42.4175 87.1472 42.5886 86.3733 42.9309 85.7111C43.2732 85.0451 43.7587 84.528 44.3875 84.1596C45.0199 83.7876 45.7696 83.6016 46.6365 83.6016C47.5034 83.6016 48.2512 83.7876 48.8799 84.1596C49.5124 84.528 49.9998 85.0451 50.3421 85.7111C50.6844 86.3733 50.8555 87.1472 50.8555 88.0326C50.8555 88.9107 50.6844 89.6827 50.3421 90.3486C49.9998 91.0109 49.5124 91.528 48.8799 91.9001C48.2512 92.2684 47.5034 92.4526 46.6365 92.4526ZM46.6477 90.6109C47.042 90.6109 47.3713 90.4993 47.6354 90.2761C47.8996 90.0491 48.0986 89.7403 48.2326 89.3497C48.3702 88.959 48.4391 88.5144 48.4391 88.0159C48.4391 87.5174 48.3702 87.0728 48.2326 86.6821C48.0986 86.2915 47.8996 85.9827 47.6354 85.7557C47.3713 85.5288 47.042 85.4153 46.6477 85.4153C46.2496 85.4153 45.9147 85.5288 45.6431 85.7557C45.3753 85.9827 45.1725 86.2915 45.0348 86.6821C44.9009 87.0728 44.8339 87.5174 44.8339 88.0159C44.8339 88.5144 44.9009 88.959 45.0348 89.3497C45.1725 89.7403 45.3753 90.0491 45.6431 90.2761C45.9147 90.4993 46.2496 90.6109 46.6477 90.6109ZM60.292 92.2852H56.2404V80.8558H60.3255C61.4751 80.8558 62.4648 81.0846 63.2944 81.5423C64.1241 81.9962 64.7622 82.6491 65.2086 83.5011C65.6588 84.3531 65.8839 85.3725 65.8839 86.5593C65.8839 87.7499 65.6588 88.773 65.2086 89.6287C64.7622 90.4844 64.1204 91.1411 63.2833 91.5987C62.4499 92.0563 61.4528 92.2852 60.292 92.2852ZM58.6569 90.2147H60.1916C60.9059 90.2147 61.5068 90.0882 61.9941 89.8352C62.4852 89.5785 62.8536 89.1823 63.0991 88.6465C63.3484 88.1071 63.473 87.4113 63.473 86.5593C63.473 85.7148 63.3484 85.0246 63.0991 84.4889C62.8536 83.9531 62.4871 83.5588 61.9997 83.3058C61.5123 83.0528 60.9115 82.9263 60.1971 82.9263H58.6569V90.2147ZM71.5809 92.4526C70.714 92.4526 69.9643 92.2684 69.3318 91.9001C68.7031 91.528 68.2176 91.0109 67.8753 90.3486C67.533 89.6827 67.3618 88.9107 67.3618 88.0326C67.3618 87.1472 67.533 86.3733 67.8753 85.7111C68.2176 85.0451 68.7031 84.528 69.3318 84.1596C69.9643 83.7876 70.714 83.6016 71.5809 83.6016C72.4477 83.6016 73.1956 83.7876 73.8243 84.1596C74.4568 84.528 74.9442 85.0451 75.2865 85.7111C75.6288 86.3733 75.7999 87.1472 75.7999 88.0326C75.7999 88.9107 75.6288 89.6827 75.2865 90.3486C74.9442 91.0109 74.4568 91.528 73.8243 91.9001C73.1956 92.2684 72.4477 92.4526 71.5809 92.4526ZM71.592 90.6109C71.9864 90.6109 72.3157 90.4993 72.5798 90.2761C72.844 90.0491 73.043 89.7403 73.177 89.3497C73.3146 88.959 73.3834 88.5144 73.3834 88.0159C73.3834 87.5174 73.3146 87.0728 73.177 86.6821C73.043 86.2915 72.844 85.9827 72.5798 85.7557C72.3157 85.5288 71.9864 85.4153 71.592 85.4153C71.1939 85.4153 70.8591 85.5288 70.5875 85.7557C70.3196 85.9827 70.1169 86.2915 69.9792 86.6821C69.8453 87.0728 69.7783 87.5174 69.7783 88.0159C69.7783 88.5144 69.8453 88.959 69.9792 89.3497C70.1169 89.7403 70.3196 90.0491 70.5875 90.2761C70.8591 90.4993 71.1939 90.6109 71.592 90.6109Z" fill="#242526"/>
</svg>
