<svg width="195" height="59" viewBox="0 0 195 59" fill="none" xmlns="http://www.w3.org/2000/svg">
<path d="M31.3745 49.9056C31.463 50.9081 31.6789 51.895 32.017 52.8423H15.174C12.1965 52.8392 9.34185 51.6489 7.23644 49.5326C5.13104 47.4164 3.94687 44.5469 3.94379 41.5541V23.7863C4.71103 24.0436 5.38868 24.5169 5.89625 25.1498C6.40383 25.7828 6.72 26.5489 6.80721 27.3572L6.86541 27.8907V41.5541C6.86787 43.7683 7.74403 45.8911 9.30166 47.4568C10.8593 49.0224 12.9712 49.9031 15.174 49.9056H31.3745Z" fill="white"/>
<path d="M49.1061 18.7341V38.4464C48.1894 37.9174 47.2059 37.5152 46.1821 37.2507V18.7341C46.1803 16.5203 45.3045 14.3978 43.7472 12.8324C42.1899 11.267 40.0783 10.3868 37.8759 10.3849H26.0031L23.9312 10.1509C23.1579 10.0666 22.4228 9.76941 21.8067 9.29215C21.1906 8.81488 20.7174 8.17602 20.4392 7.44586H37.8759C40.8534 7.44896 43.708 8.63925 45.8134 10.7555C47.9188 12.8718 49.103 15.7412 49.1061 18.7341Z" fill="white"/>
<path d="M7.78512 0L7.88755 0.924306C8.08139 2.65699 8.85497 4.27212 10.0815 5.50503C11.3081 6.73794 12.9149 7.51552 14.6387 7.71036L15.5559 7.81332L14.6387 7.91862C12.9149 8.11345 11.3081 8.89103 10.0815 10.1239C8.85497 11.3569 8.08139 12.972 7.88755 14.7047L7.78512 15.6407L7.68269 14.7047C7.48886 12.972 6.71527 11.3569 5.4887 10.1239C4.26213 8.89103 2.6553 8.11345 0.93153 7.91862L0.000335693 7.81332L0.93153 7.71036C2.6553 7.51552 4.26213 6.73794 5.4887 5.50503C6.71527 4.27212 7.48886 2.65699 7.68269 0.924306L7.78512 0Z" fill="white"/>
<path d="M18.2988 7.81342C18.4033 8.75188 18.8218 9.62683 19.4859 10.2948C20.15 10.9627 21.0202 11.384 21.9538 11.4896C21.0202 11.5942 20.1499 12.0149 19.4857 12.6826C18.8215 13.3502 18.4029 14.2251 18.2988 15.1634C18.1938 14.225 17.7747 13.3503 17.1102 12.6828C16.4457 12.0153 15.5752 11.5945 14.6416 11.4896C15.5753 11.3837 16.4455 10.9624 17.1099 10.2945C17.7743 9.62669 18.1935 8.75192 18.2988 7.81342Z" fill="white"/>
<path d="M4.63689 15.6314C4.72088 16.3849 5.05716 17.0874 5.59057 17.6235C6.12397 18.1597 6.82282 18.4977 7.57248 18.5822C6.82352 18.6664 6.12522 19.0037 5.5919 19.5389C5.05859 20.0742 4.72187 20.7755 4.63689 21.5282C4.55289 20.7747 4.21661 20.0722 3.68321 19.5361C3.1498 18.9999 2.45095 18.6619 1.70129 18.5775C2.45095 18.493 3.1498 18.155 3.68321 17.6189C4.21661 17.0827 4.55289 16.3802 4.63689 15.6267V15.6314Z" fill="white"/>
<path d="M41.5201 19.9886H19.9303C18.7436 19.9886 17.7816 20.9556 17.7816 22.1484V23.2272C17.7816 24.42 18.7436 25.387 19.9303 25.387H41.5201C42.7068 25.387 43.6688 24.42 43.6688 23.2272V22.1484C43.6688 20.9556 42.7068 19.9886 41.5201 19.9886Z" fill="white"/>
<path d="M13.032 19.9886H12.7596C11.3517 19.9886 10.2104 21.1358 10.2104 22.5509V22.8247C10.2104 24.2398 11.3517 25.387 12.7596 25.387H13.032C14.4398 25.387 15.5811 24.2398 15.5811 22.8247V22.5509C15.5811 21.1358 14.4398 19.9886 13.032 19.9886Z" fill="white"/>
<g opacity="0.6">
<path d="M41.5195 28.8129H19.9298C18.743 28.8129 17.781 29.7799 17.781 30.9728V32.0515C17.781 33.2444 18.743 34.2113 19.9298 34.2113H41.5195C42.7062 34.2113 43.6682 33.2444 43.6682 32.0515V30.9728C43.6682 29.7799 42.7062 28.8129 41.5195 28.8129Z" fill="white"/>
<path d="M13.0315 28.8127H12.7591C11.3512 28.8127 10.21 29.9599 10.21 31.375V31.6488C10.21 33.0639 11.3512 34.2111 12.7591 34.2111H13.0315C14.4393 34.2111 15.5806 33.0639 15.5806 31.6488V31.375C15.5806 29.9599 14.4393 28.8127 13.0315 28.8127Z" fill="white"/>
</g>
<g opacity="0.2">
<path d="M39.0192 37.6393C36.3776 38.6416 34.1763 40.5549 32.8082 43.0377H19.9274C19.3579 43.0371 18.812 42.8093 18.4095 42.4043C18.0071 41.9993 17.781 41.4503 17.781 40.8779V39.7968C17.781 39.2246 18.0072 38.6758 18.4097 38.2712C18.8122 37.8666 19.3582 37.6393 19.9274 37.6393H39.0192Z" fill="white"/>
<path d="M13.0315 37.6393H12.7591C11.3512 37.6393 10.21 38.7865 10.21 40.2016V40.4754C10.21 41.8905 11.3512 43.0377 12.7591 43.0377H13.0315C14.4393 43.0377 15.5806 41.8905 15.5806 40.4754V40.2016C15.5806 38.7865 14.4393 37.6393 13.0315 37.6393Z" fill="white"/>
</g>
<path d="M38.1644 46.3137C38.1555 46.0196 38.235 45.7296 38.3924 45.4815C38.5498 45.2334 38.7779 45.0387 39.047 44.9228C39.3161 44.8069 39.6136 44.7751 39.9009 44.8316C40.1882 44.8881 40.4519 45.0303 40.6577 45.2396C41.2397 45.7989 41.803 46.3792 42.3804 46.9408C42.5899 47.1444 42.7622 47.3573 43.0276 47.348C43.293 47.3386 43.4396 47.142 43.6398 46.9431L49.3341 41.2405C49.6879 40.8872 50.0511 40.5385 50.6028 40.5783C50.8959 40.575 51.1837 40.657 51.4315 40.8144C51.6794 40.9717 51.8766 41.1977 51.9996 41.4652C52.1266 41.7142 52.1741 41.9965 52.1358 42.2737C52.0975 42.5509 51.9752 42.8095 51.7854 43.0143C51.243 43.6624 50.6005 44.217 50.0022 44.8137C48.0723 46.7396 46.1331 48.6537 44.2032 50.5772C44.045 50.7419 43.8559 50.8735 43.6468 50.9643C43.4377 51.0551 43.2128 51.1033 42.985 51.1061C42.7572 51.1089 42.5312 51.0663 42.3199 50.9808C42.1086 50.8952 41.9163 50.7684 41.7541 50.6076C40.7438 49.6037 39.7451 48.5882 38.7417 47.5773C38.5573 47.4238 38.4096 47.2305 38.3097 47.0117C38.2097 46.7929 38.1601 46.5544 38.1644 46.3137Z" fill="white"/>
<path opacity="0.2" d="M41.7828 40.4823C41.8084 40.6204 41.7549 40.6625 41.6361 40.6836C40.6462 40.8401 39.6989 41.1999 38.8534 41.7406C38.0079 42.2812 37.2823 42.9912 36.7218 43.8262C36.6426 43.9409 36.5774 43.9432 36.468 43.8824C35.8627 43.5454 35.2575 43.2108 34.6452 42.8879C34.459 42.7896 34.5521 42.703 34.6219 42.6024C35.8359 40.7977 37.5958 39.434 39.6411 38.7133C40.1805 38.5332 40.7321 38.3924 41.2916 38.2921C41.4592 38.2593 41.543 38.2757 41.5617 38.4839C41.6222 39.1625 41.7083 39.8341 41.7828 40.4823Z" fill="white"/>
<path opacity="0.2" d="M40.3215 55.3157C40.3222 55.3274 40.3222 55.3391 40.3215 55.3508C40.0654 56.0372 39.8101 56.7221 39.5556 57.4053C39.4997 57.5528 39.3926 57.4966 39.2925 57.4615C37.8279 56.927 36.5139 56.0438 35.463 54.8875C35.1099 54.5035 34.7847 54.0945 34.4899 53.6637C34.3828 53.5092 34.3595 53.4179 34.562 53.3197C35.1906 53.0108 35.8145 52.6879 36.4244 52.3603C36.5758 52.2807 36.6386 52.3486 36.7201 52.4609C37.3506 53.3582 38.166 54.1084 39.1109 54.6605C39.4513 54.8464 39.8018 55.0128 40.1608 55.1589C40.2284 55.1917 40.3261 55.2034 40.3215 55.3157Z" fill="white"/>
<path opacity="0.2" d="M50.2865 54.5856C50.2609 54.5692 50.2214 54.5458 50.1841 54.5177C49.6114 54.0989 49.0411 53.673 48.4614 53.2635C48.3287 53.1675 48.3194 53.102 48.4195 52.978C49.0035 52.2644 49.4553 51.4512 49.7534 50.5771C49.807 50.4204 49.8815 50.3923 50.0305 50.4438C50.6761 50.659 51.3233 50.8696 51.972 51.0756C52.128 51.1224 52.1559 51.1949 52.107 51.347C51.7485 52.4624 51.2055 53.509 50.5007 54.4428C50.4588 54.5084 50.4169 54.5926 50.2865 54.5856Z" fill="white"/>
<path opacity="0.2" d="M35.201 47.6686C34.6283 47.5843 34.0579 47.5071 33.4876 47.4158C32.9661 47.3293 32.9754 47.3246 33.0429 46.7864C33.1873 45.7478 33.4806 44.7358 33.9136 43.7818C33.9904 43.6063 34.0416 43.5478 34.2232 43.7022C34.7377 44.1702 35.2685 44.6102 35.7993 45.0571C35.8947 45.1367 35.9576 45.1952 35.8994 45.3379C35.6231 46.0171 35.4542 46.7356 35.3988 47.4673C35.3872 47.6007 35.3593 47.6943 35.201 47.6686Z" fill="white"/>
<path opacity="0.2" d="M36.0065 51.1668C35.6674 50.3594 35.466 49.5003 35.4105 48.6256C35.3989 48.4431 35.3081 48.4103 35.1521 48.4126C34.8308 48.4126 34.5073 48.4126 34.186 48.4126L33.1384 48.4524C32.9615 48.4524 32.9056 48.5577 32.9382 48.7449C32.9708 48.9321 32.9685 49.1802 32.9917 49.3978C33.1039 50.3238 33.3243 51.2333 33.6482 52.1075C33.6878 52.2199 33.7111 52.3766 33.916 52.2854C34.5724 51.9929 35.2336 51.7097 35.8971 51.4289C35.9245 51.4236 35.9503 51.4115 35.972 51.3938C35.9937 51.3761 36.0107 51.3532 36.0215 51.3273C36.0323 51.3014 36.0366 51.2732 36.034 51.2452C36.0314 51.2172 36.0219 51.1903 36.0065 51.1668Z" fill="white"/>
<path opacity="0.2" d="M48.985 55.6714C48.6731 55.2034 48.3728 54.7097 48.0538 54.2323C47.7349 53.7549 47.7372 53.7643 47.2646 54.0849L47.2181 54.1176C45.5603 55.2936 43.5121 55.7746 41.5075 55.4585C41.2864 55.4257 41.2212 55.4936 41.2189 55.7042L41.17 56.6542C41.17 56.6963 41.17 56.7385 41.17 56.7806C41.17 56.8204 41.17 56.8578 41.17 56.8953C41.17 56.9327 41.17 56.9842 41.17 57.0286L41.1374 57.6768C41.1257 57.9108 41.2608 57.9717 41.4819 58.0021C44.2569 58.3905 46.7315 57.6604 48.9571 55.9873C49.0805 55.8867 49.0758 55.8095 48.985 55.6714Z" fill="white"/>
<path opacity="0.2" d="M52.5051 48.0057C52.4737 47.0761 52.3171 46.1551 52.0395 45.2678C51.9488 44.9636 51.9115 44.9496 51.6764 45.1672C51.1766 45.6352 50.6567 46.0783 50.1166 46.4963C50.0567 46.5328 50.0105 46.5881 49.9853 46.6538C49.96 46.7194 49.9571 46.7916 49.9769 46.859C50.0673 47.2875 50.1126 47.7244 50.112 48.1624C50.1162 48.5148 50.1007 48.8672 50.0654 49.2178C50.0491 49.3629 50.0654 49.4822 50.2586 49.4869L52.2747 49.5477C52.4306 49.5477 52.5075 49.4845 52.5075 49.3278C52.529 48.8873 52.5282 48.446 52.5051 48.0057Z" fill="white"/>
<path opacity="0.2" d="M48.2804 40.0142C46.7573 38.9106 44.9442 38.283 43.068 38.21H43.0215C42.8352 38.182 42.8515 38.3387 42.8515 38.3387L42.805 40.3465V40.2224C42.805 40.2646 42.805 40.3043 42.805 40.3465C42.777 40.5805 42.8585 40.6273 43.0773 40.6413C44.342 40.7016 45.5646 41.1166 46.6066 41.8394C46.7463 41.94 46.7975 41.8815 46.8813 41.7949C47.3469 41.3035 47.8288 40.8098 48.3107 40.3254C48.4503 40.1897 48.4224 40.1242 48.2804 40.0142Z" fill="white"/>
<path d="M67.1709 40.2408V21.4212H60.803V17.322H77.8387V21.4212H71.4708V40.2408H67.1709Z" fill="white"/>
<path d="M87.6162 38.5795H87.3607C86.8612 39.1879 86.2631 39.7072 85.5915 40.1154C84.7823 40.5721 83.8627 40.7936 82.9354 40.755C82.1591 40.76 81.3882 40.6238 80.6602 40.3529C79.9758 40.1037 79.3432 39.7291 78.7946 39.2481C78.2639 38.7801 77.8411 38.2014 77.5558 37.5522C77.2518 36.8681 77.0989 36.1259 77.1075 35.3766C77.0979 34.6174 77.2629 33.8663 77.5895 33.1817C77.9097 32.5316 78.367 31.9595 78.9296 31.5051C79.528 31.0197 80.2137 30.6545 80.9494 30.4295C81.7697 30.179 82.6229 30.0549 83.4802 30.0612C84.3254 30.0442 85.1698 30.1255 85.9965 30.3035C86.5483 30.4278 87.091 30.5897 87.621 30.788V30.3035C87.6279 29.9058 87.5422 29.512 87.3706 29.1535C87.199 28.7951 86.9463 28.482 86.6328 28.2393C85.9387 27.684 85.0706 27.3954 84.184 27.4253C83.4746 27.423 82.7745 27.5864 82.1387 27.9026C81.503 28.2188 80.949 28.6791 80.5204 29.2472L77.4931 27.1685C79.1514 25.0753 81.4122 24.0303 84.2755 24.0335C86.6954 24.0335 88.5433 24.6037 89.8191 25.7439C91.0949 26.8842 91.7377 28.5753 91.7473 30.8171V40.2269H87.6403L87.6162 38.5795ZM87.6162 33.8697C87.1294 33.6383 86.6228 33.4518 86.1025 33.3125C85.5468 33.1685 84.9747 33.0984 84.4009 33.1041C83.5795 33.0513 82.7649 33.2821 82.0919 33.7583C81.8397 33.9453 81.6347 34.1891 81.4932 34.4701C81.3517 34.7512 81.2777 35.0617 81.2772 35.3766C81.2701 35.6777 81.3378 35.9758 81.4742 36.244C81.6105 36.5122 81.8112 36.742 82.0581 36.9126C82.5867 37.2938 83.2253 37.4895 83.8754 37.4699C84.3794 37.4748 84.8794 37.3797 85.3467 37.1901C85.8141 37.0006 86.2396 36.7202 86.599 36.3651C87.2621 35.6979 87.6349 34.7935 87.6354 33.8503L87.6162 33.8697Z" fill="white"/>
<path d="M101.053 40.7549C100.133 40.7712 99.216 40.6437 98.3347 40.377C97.5956 40.1518 96.8963 39.8118 96.2619 39.3691C95.696 38.9653 95.1966 38.4748 94.782 37.9155C94.4011 37.4116 94.0913 36.8572 93.8613 36.2681L97.5827 34.6691C97.8813 35.3991 98.3835 36.0267 99.0288 36.4764C99.6314 36.8689 100.335 37.0745 101.053 37.0676C101.684 37.0984 102.311 36.9543 102.866 36.6509C103.056 36.5605 103.218 36.4207 103.336 36.246C103.454 36.0714 103.523 35.8682 103.536 35.6576C103.538 35.4513 103.487 35.248 103.389 35.0667C103.291 34.8854 103.15 34.7319 102.977 34.6206C102.382 34.2654 101.729 34.0209 101.049 33.8987L98.8505 33.4141C98.3291 33.2978 97.8217 33.1256 97.3368 32.9005C96.8239 32.672 96.3465 32.37 95.9196 32.0041C95.4907 31.6382 95.1342 31.1944 94.8687 30.6958C94.5836 30.1425 94.441 29.5261 94.4542 28.903C94.4354 28.1894 94.6015 27.4831 94.9362 26.8534C95.2678 26.2515 95.7289 25.7317 96.286 25.332C96.8993 24.8925 97.5846 24.5645 98.3106 24.3629C99.1232 24.1345 99.9638 24.0219 100.808 24.0286C102.185 24.0034 103.549 24.3038 104.789 24.9056C105.958 25.4938 106.875 26.4891 107.368 27.7062L103.772 29.1599C103.506 28.5728 103.044 28.098 102.466 27.8177C101.932 27.5477 101.343 27.4051 100.745 27.401C100.202 27.3882 99.6641 27.515 99.1831 27.7692C98.9941 27.8466 98.8311 27.9766 98.7132 28.144C98.5954 28.3114 98.5276 28.5092 98.5179 28.7141C98.5206 28.8956 98.574 29.0727 98.672 29.2252C98.7701 29.3777 98.9087 29.4994 99.0722 29.5766C99.5506 29.8319 100.059 30.0257 100.586 30.1532L102.996 30.7298C104.335 30.9956 105.564 31.655 106.53 32.6243C107.291 33.4299 107.708 34.5031 107.691 35.6139C107.688 36.2896 107.523 36.9544 107.209 37.5521C106.876 38.1894 106.415 38.7503 105.855 39.1996C105.229 39.7045 104.517 40.0904 103.753 40.3382C102.881 40.6227 101.97 40.7634 101.053 40.7549Z" fill="white"/>
<path d="M110.252 17.3221H114.426V29.8088H114.614L119.84 24.5563H124.997V24.8131L119.213 30.4774L125.48 39.9841V40.2409H120.539L116.272 33.3605L114.426 35.1823V40.2409H110.252V17.3221Z" fill="white"/>
<path d="M130.57 40.2409H127.639V17.3221H130.57L138.5 31.2769H138.625L146.54 17.3221H149.466V40.2409H146.54V26.6399L146.666 22.7975H146.54L139.406 35.3955H137.685L130.556 22.7975H130.425L130.556 26.6399L130.57 40.2409Z" fill="white"/>
<path d="M159.002 24.0479C161.171 24.0479 162.881 24.6293 164.131 25.7922C165.381 26.9551 166.008 28.5492 166.011 30.5746V40.2654H163.206V38.0899H163.08C162.577 38.9185 161.868 39.6018 161.023 40.0731C160.178 40.5444 159.226 40.7876 158.26 40.7791C156.681 40.8293 155.141 40.281 153.946 39.2431C153.39 38.7724 152.947 38.1833 152.647 37.5187C152.346 36.854 152.197 36.1305 152.21 35.4007C152.183 34.6541 152.335 33.912 152.654 33.2372C152.973 32.5624 153.449 31.9749 154.042 31.5243C155.26 30.5553 156.889 30.0707 158.93 30.0707C160.421 30.013 161.901 30.3471 163.225 31.0398V30.3663C163.229 29.8679 163.123 29.3748 162.914 28.9229C162.704 28.4711 162.397 28.072 162.015 27.7546C161.238 27.052 160.226 26.6696 159.181 26.6838C158.414 26.6702 157.657 26.8547 156.982 27.2195C156.307 27.5843 155.736 28.1173 155.324 28.7673L152.745 27.1344C154.14 25.0767 156.226 24.0479 159.002 24.0479ZM155.218 35.4394C155.212 35.8165 155.297 36.1895 155.465 36.5269C155.632 36.8642 155.879 37.156 156.182 37.3776C156.829 37.8909 157.633 38.1632 158.458 38.148C159.694 38.1452 160.88 37.6505 161.755 36.7719C162.21 36.3669 162.574 35.8693 162.823 35.3122C163.073 34.755 163.201 34.151 163.201 33.54C162.288 32.8132 161.016 32.4498 159.383 32.4498C158.323 32.4114 157.279 32.7154 156.404 33.3171C156.047 33.544 155.751 33.8569 155.544 34.2274C155.337 34.598 155.225 35.0145 155.218 35.4394Z" fill="white"/>
<path d="M175.18 40.4982C174.01 40.5362 172.872 40.1097 172.013 39.3111C171.582 38.8822 171.244 38.3677 171.022 37.8004C170.799 37.2331 170.697 36.6255 170.721 36.0162V27.246H167.983V24.5568H170.721V19.755H173.652V24.5568H177.474V27.246H173.652V35.0471C173.652 36.0937 173.854 36.8012 174.259 37.1743C174.625 37.5339 175.116 37.7356 175.628 37.7363C175.859 37.7355 176.088 37.7079 176.313 37.654C176.526 37.6043 176.734 37.5345 176.935 37.4456L177.855 40.0718C176.995 40.3682 176.089 40.5124 175.18 40.4982Z" fill="white"/>
<path d="M187.12 40.7545C186.063 40.7859 185.011 40.5909 184.035 40.1824C183.058 39.7739 182.179 39.1612 181.456 38.3851C179.953 36.7666 179.15 34.6142 179.224 32.401C179.154 30.2051 179.929 28.0665 181.389 26.4315C182.086 25.6537 182.942 25.0377 183.9 24.626C184.857 24.2144 185.892 24.0169 186.932 24.0475C189.246 24.0475 191.088 24.7986 192.457 26.3006C193.826 27.8027 194.51 29.9105 194.51 32.6239L194.477 32.9437H182.213C182.205 33.6341 182.336 34.3189 182.599 34.9568C182.862 35.5948 183.25 36.1726 183.741 36.6553C184.203 37.1119 184.751 37.4716 185.353 37.7137C185.954 37.9557 186.598 38.0753 187.246 38.0653C189.113 38.0653 190.577 37.1269 191.637 35.2501L194.25 36.5293C193.589 37.8117 192.588 38.8851 191.358 39.6304C190.076 40.3924 188.609 40.7816 187.12 40.7545ZM182.44 30.5113H191.372C191.343 29.9948 191.211 29.4895 190.984 29.0252C190.757 28.5608 190.44 28.1468 190.051 27.8076C189.158 27.0555 188.014 26.6712 186.851 26.7319C185.808 26.7105 184.793 27.0762 184.002 27.7591C183.192 28.4773 182.643 29.4453 182.44 30.5113Z" fill="white"/>
</svg>
