<svg width="20" height="20" viewBox="0 0 20 20" fill="none" xmlns="http://www.w3.org/2000/svg">
<path d="M5.14371 13.2959H16.2064V3.96777H3.77641V14.3842L5.14371 13.2959ZM5.68752 14.8506L2.22266 17.5713V3.19043C2.22266 2.98314 2.29775 2.80176 2.44795 2.64629C2.59815 2.49082 2.78201 2.41309 2.99953 2.41309H16.9833C17.2008 2.41309 17.3847 2.49082 17.5349 2.64629C17.6851 2.80176 17.7602 2.98314 17.7602 3.19043V14.0732C17.7602 14.2909 17.6851 14.4775 17.5349 14.6329C17.3847 14.7884 17.2008 14.861 16.9833 14.8506H5.68752ZM9.21453 10.9639H10.7683V12.5186H9.21453V10.9639ZM7.31896 6.93723C7.40182 6.52264 7.57274 6.14952 7.83169 5.81785C8.09065 5.48619 8.40658 5.22448 8.77948 5.03273C9.15238 4.84099 9.55636 4.74512 9.99141 4.74512C10.4886 4.75548 10.9444 4.88245 11.3587 5.12602C11.773 5.36958 12.1019 5.69866 12.3453 6.11324C12.5888 6.52783 12.7105 6.98128 12.7105 7.47359C12.7105 7.96591 12.5888 8.41936 12.3453 8.83395C12.1019 9.24853 11.773 9.5802 11.3587 9.82895C10.9444 10.0777 10.4886 10.2021 9.99141 10.2021H9.21453V8.63184H9.99141C10.3125 8.63184 10.587 8.52042 10.8149 8.29758C11.0428 8.07474 11.1567 7.80008 11.1567 7.47359C11.1567 7.14711 11.0428 6.87245 10.8149 6.64961C10.587 6.42677 10.3125 6.31535 9.99141 6.31535C9.71173 6.31535 9.46572 6.40345 9.25338 6.57965C9.04103 6.75585 8.90378 6.97868 8.84163 7.24816L7.31896 6.93723Z" fill="#9C27B0"/>
</svg>
