<svg width="31" height="33" viewBox="0 0 31 33" fill="none" xmlns="http://www.w3.org/2000/svg">
<path d="M15.2047 19.7711C17.2971 19.7711 18.9862 18.082 18.9862 15.9895V8.42635C18.9862 6.33388 17.2971 4.64478 15.2047 4.64478C13.1122 4.64478 11.4231 6.33388 11.4231 8.42635V15.9895C11.4231 18.082 13.1122 19.7711 15.2047 19.7711ZM22.6544 15.9895C22.0367 15.9895 21.5199 16.4433 21.4191 17.0609C20.9022 20.0232 18.3182 22.2921 15.2047 22.2921C12.0912 22.2921 9.50709 20.0232 8.99027 17.0609C8.94533 16.7647 8.79631 16.4941 8.56993 16.2977C8.34355 16.1014 8.05462 15.9921 7.75496 15.9895C6.98604 15.9895 6.38099 16.6702 6.49443 17.4265C7.11209 21.2081 10.1374 24.1703 13.9441 24.7123V27.3342C13.9441 28.0275 14.5114 28.5948 15.2047 28.5948C15.898 28.5948 16.4652 28.0275 16.4652 27.3342V24.7123C18.3203 24.4479 20.0428 23.5989 21.3825 22.2887C22.7222 20.9785 23.6093 19.2753 23.9149 17.4265C24.0409 16.6702 23.4233 15.9895 22.6544 15.9895Z" fill="white"/>
<path d="M18.0711 4.06831C18.1946 3.98108 18.3418 3.9347 18.4926 3.9352V3.93722C18.6349 3.93685 18.7742 3.97832 18.8932 4.0565C19.0122 4.13467 19.1055 4.24608 19.1617 4.37689L19.4707 5.31674C19.5421 5.52967 19.662 5.72307 19.821 5.88164C19.98 6.04022 20.1738 6.15961 20.3869 6.23036L21.2834 6.5218C21.428 6.57228 21.5531 6.66717 21.6406 6.79293C21.7281 6.91868 21.7737 7.06888 21.7708 7.22206C21.7679 7.37525 21.7166 7.52361 21.6244 7.64595C21.5322 7.76829 21.4036 7.85838 21.2572 7.90333L20.3723 8.19073C20.1583 8.26206 19.9638 8.38227 19.8044 8.54182C19.6449 8.70137 19.5248 8.89587 19.4536 9.10991L19.1622 10.0059C19.1113 10.1486 19.0173 10.2719 18.8932 10.3587C18.7691 10.4456 18.621 10.4916 18.4695 10.4903C18.318 10.4891 18.1707 10.4407 18.0479 10.3519C17.9252 10.2631 17.8332 10.1383 17.7847 9.9948L17.4907 9.09125C17.4197 8.88344 17.3025 8.69443 17.148 8.53845C16.9934 8.38247 16.8054 8.26358 16.5983 8.19073L15.7023 7.90333C15.5585 7.85357 15.4339 7.76001 15.346 7.63578C15.2581 7.51156 15.2113 7.36292 15.2123 7.21075C15.2132 7.05859 15.2618 6.91054 15.3513 6.78742C15.4407 6.6643 15.5664 6.57229 15.7109 6.52432L16.5952 6.23742C16.8092 6.16559 17.0036 6.04504 17.163 5.88526C17.3224 5.72549 17.4425 5.53086 17.5139 5.31674L17.8053 4.42176C17.8553 4.27907 17.948 4.15554 18.0711 4.06831ZM21.9368 1.52407C21.8406 1.59261 21.7683 1.6896 21.7301 1.80138L21.5647 2.30862C21.5327 2.40517 21.4786 2.49292 21.4067 2.56495C21.3349 2.63697 21.2472 2.69128 21.1508 2.72358L20.6511 2.88644C20.5368 2.92516 20.4374 2.99858 20.3668 3.09647C20.2963 3.19435 20.258 3.31182 20.2573 3.4325C20.2572 3.55249 20.2946 3.66951 20.3643 3.76717C20.434 3.86482 20.5325 3.93821 20.6461 3.97705L21.1533 4.14142C21.2476 4.17495 21.3331 4.22965 21.403 4.30132C21.4729 4.37299 21.5255 4.45973 21.5567 4.55487L21.72 5.05455C21.7585 5.16761 21.8311 5.26594 21.9278 5.33595C22.0246 5.40596 22.1407 5.44419 22.2601 5.44535C22.3795 5.44651 22.4963 5.41055 22.5944 5.34244C22.6925 5.27433 22.767 5.17743 22.8076 5.06513L22.9735 4.55387C23.006 4.45802 23.0602 4.37101 23.1319 4.29962C23.2037 4.22824 23.2909 4.17444 23.3869 4.14243L23.8871 3.97957C24.0024 3.94351 24.1035 3.87207 24.1759 3.77538C24.2483 3.67868 24.2884 3.56164 24.2906 3.44085C24.2928 3.32007 24.2569 3.20166 24.188 3.10242C24.1191 3.00318 24.0207 2.92814 23.9068 2.88796L23.3955 2.72207C23.2994 2.68962 23.2121 2.6353 23.1405 2.56338C23.069 2.49146 23.0151 2.4039 22.9831 2.30761L22.8207 1.80895C22.7814 1.69298 22.7068 1.59214 22.6064 1.52155C22.5085 1.45196 22.3913 1.41479 22.2712 1.41524C22.1511 1.41569 22.0342 1.45375 21.9368 1.52407Z" fill="white" stroke="#6366F1" stroke-width="0.7"/>
</svg>
